<?xml version="1.0" encoding="UTF-8" standalone="no"?>
<svg xmlns:inkscape="http://www.inkscape.org/namespaces/inkscape" xmlns:sodipodi="http://sodipodi.sourceforge.net/DTD/sodipodi-0.dtd" xmlns="http://www.w3.org/2000/svg" xmlns:svg="http://www.w3.org/2000/svg" xmlns:rdf="http://www.w3.org/1999/02/22-rdf-syntax-ns#" xmlns:cc="http://creativecommons.org/ns#" xmlns:dc="http://purl.org/dc/elements/1.1/" width="132.29167mm" height="25.03392mm" viewBox="0 0 132.29167 25.03392" version="1.1" id="svg1076" inkscape:version="1.1.2 (0a00cf5339, 2022-02-04)" sodipodi:docname="logo.svg">
  <defs id="defs1070"></defs>
  <metadata id="metadata1073"></metadata>
  <g inkscape:label="Layer 1" inkscape:groupmode="layer" id="layer1" transform="translate(-26.067027,-125.70815)">
    <g id="g1015" transform="matrix(0.86566774,0,0,0.86566774,3.5016426,16.88666)">
      <rect style="fill:#f0f0f0;fill-opacity:1;stroke:#d0d0d0;stroke-width:0.276754;stroke-miterlimit:4;stroke-dasharray:none;stroke-opacity:1" id="rect2110" width="30.321035" height="28.64187" x="26.205404" y="125.84653" ry="1.9296464"></rect>
      <g id="g1198" transform="matrix(0.88654472,0,0,0.88654472,2.946926,-20.74262)">
        <path d="m 74.01573,192.74149 q -0.282009,-0.56402 -0.676821,-1.24084 -0.394812,-0.69562 -0.864826,-1.42884 -0.470015,-0.75203 -0.97763,-1.48525 -0.507615,-0.75202 -0.97763,-1.41004 -0.470014,0.65802 -0.977629,1.41004 -0.507616,0.73322 -0.97763,1.48525 -0.451214,0.73322 -0.864826,1.42884 -0.394812,0.67682 -0.676821,1.24084 h -2.011661 q 0.846026,-1.65445 1.955259,-3.3653 1.128035,-1.71086 2.387673,-3.51571 l -4.173727,-6.14779 h 2.105664 l 3.214898,4.85055 3.177296,-4.85055 h 2.086864 l -4.098525,6.07259 q 1.278439,1.82365 2.406473,3.55331 1.128035,1.72965 1.992861,3.4029 z" style="font-style:normal;font-variant:normal;font-weight:normal;font-stretch:normal;font-size:18.8006px;line-height:1.25;font-family:Ubuntu;-inkscape-font-specification:Ubuntu;letter-spacing:0.300809px;word-spacing:0px;fill:#475e73;fill-opacity:1;stroke:none;stroke-width:0.107039" id="path891" inkscape:connector-curvature="0"></path>
        <path d="m 81.81794,179.58109 q 2.744884,0 4.211328,1.05283 1.485245,1.03403 1.485245,3.10209 0,1.12804 -0.413612,1.93646 -0.394812,0.78963 -1.165636,1.29724 -0.752022,0.48882 -1.842456,0.71442 -1.090433,0.22561 -2.462874,0.22561 h -1.447644 v 4.83175 H 78.358635 V 179.9007 q 0.770824,-0.18801 1.710852,-0.24441 0.958829,-0.0752 1.748453,-0.0752 z m 0.150405,1.59805 q -1.165636,0 -1.786054,0.0564 v 5.11375 h 1.372441 q 0.940029,0 1.692052,-0.1128 0.752023,-0.1316 1.259638,-0.41361 0.526416,-0.30081 0.808425,-0.80843 0.282008,-0.50761 0.282008,-1.29724 0,-0.75202 -0.300809,-1.24083 -0.282009,-0.48882 -0.789624,-0.77083 -0.488815,-0.30081 -1.146835,-0.41361 -0.65802,-0.1128 -1.391242,-0.1128 z" style="font-style:normal;font-variant:normal;font-weight:normal;font-stretch:normal;font-size:18.8006px;line-height:1.25;font-family:Ubuntu;-inkscape-font-specification:Ubuntu;letter-spacing:0.300809px;word-spacing:0px;fill:#475e73;fill-opacity:1;stroke:none;stroke-width:0.107039" id="path893" inkscape:connector-curvature="0"></path>
        <path d="m 97.854803,192.74149 q -0.31961,-0.84603 -0.601619,-1.65445 -0.282008,-0.82723 -0.582817,-1.67325 h -5.90338 l -1.184436,3.3277 h -1.898857 q 0.752022,-2.06806 1.410042,-3.81652 0.65802,-1.76725 1.278439,-3.3465 0.63922,-1.57925 1.259639,-3.00809 0.620418,-1.44764 1.297239,-2.85769 h 1.673251 q 0.67682,1.41005 1.297239,2.85769 0.620419,1.42884 1.240838,3.00809 0.639219,1.57925 1.297239,3.3465 0.65802,1.74846 1.410043,3.81652 z m -1.710852,-4.83175 q -0.601619,-1.63565 -1.203237,-3.15849 -0.582818,-1.54165 -1.222037,-2.95169 -0.65802,1.41004 -1.259638,2.95169 -0.582818,1.52284 -1.165636,3.15849 z" style="font-style:normal;font-variant:normal;font-weight:normal;font-stretch:normal;font-size:18.8006px;line-height:1.25;font-family:Ubuntu;-inkscape-font-specification:Ubuntu;letter-spacing:0.300809px;word-spacing:0px;fill:#475e73;fill-opacity:1;stroke:none;stroke-width:0.107039" id="path895" inkscape:connector-curvature="0"></path>
        <path d="m 107.76267,190.93663 q -0.18801,-0.45121 -0.50762,-1.14683 -0.3008,-0.69562 -0.65802,-1.50405 -0.35721,-0.80842 -0.77082,-1.65445 -0.39481,-0.86482 -0.75202,-1.61685 -0.35721,-0.77082 -0.67682,-1.37244 -0.30081,-0.60162 -0.48882,-0.92123 -0.2068,2.21847 -0.33841,4.81295 -0.1316,2.57568 -0.2256,5.20776 h -1.78606 q 0.0752,-1.69205 0.16921,-3.4029 0.094,-1.72966 0.2068,-3.38411 0.13161,-1.67325 0.26321,-3.2525 0.15041,-1.57924 0.31961,-2.98929 h 1.59805 q 0.50761,0.82723 1.09043,1.95526 0.58282,1.12804 1.16564,2.36887 0.58282,1.22204 1.12803,2.46288 0.54522,1.22204 0.99643,2.23727 0.45122,-1.01523 0.99643,-2.23727 0.54522,-1.24084 1.12804,-2.46288 0.58281,-1.24083 1.16563,-2.36887 0.58282,-1.12803 1.09044,-1.95526 h 1.59804 q 0.63922,6.29819 0.95883,13.0288 h -1.78605 q -0.094,-2.63208 -0.22561,-5.20776 -0.1316,-2.59448 -0.33841,-4.81295 -0.188,0.31961 -0.50761,0.92123 -0.30081,0.60162 -0.65802,1.37244 -0.35721,0.75203 -0.77083,1.61685 -0.39481,0.84603 -0.75202,1.65445 -0.35721,0.80843 -0.67682,1.50405 -0.30081,0.69562 -0.48882,1.14683 z" style="font-style:normal;font-variant:normal;font-weight:normal;font-stretch:normal;font-size:18.8006px;line-height:1.25;font-family:Ubuntu;-inkscape-font-specification:Ubuntu;letter-spacing:0.300809px;word-spacing:0px;fill:#475e73;fill-opacity:1;stroke:none;stroke-width:0.107039" id="path897" inkscape:connector-curvature="0"></path>
        <path d="m 135.70025,192.74149 q -0.28201,-0.56402 -0.67682,-1.24084 -0.39481,-0.69562 -0.86483,-1.42884 -0.47001,-0.75203 -0.97763,-1.48525 -0.50761,-0.75202 -0.97763,-1.41004 -0.47001,0.65802 -0.97763,1.41004 -0.50761,0.73322 -0.97763,1.48525 -0.45121,0.73322 -0.86482,1.42884 -0.39481,0.67682 -0.67682,1.24084 h -2.01166 q 0.84602,-1.65445 1.95526,-3.3653 1.12803,-1.71086 2.38767,-3.51571 l -4.17373,-6.14779 h 2.10567 l 3.21489,4.85055 3.1773,-4.85055 h 2.08686 l -4.09852,6.07259 q 1.27844,1.82365 2.40647,3.55331 1.12804,1.72965 1.99286,3.4029 z" style="font-style:normal;font-variant:normal;font-weight:normal;font-stretch:normal;font-size:18.8006px;line-height:1.25;font-family:Ubuntu;-inkscape-font-specification:Ubuntu;letter-spacing:0.300809px;word-spacing:0px;fill:#475e73;fill-opacity:1;stroke:none;stroke-width:0.107039" id="path899" inkscape:connector-curvature="0"></path>
        <path d="m 143.50246,179.58109 q 2.74489,0 4.21133,1.05283 1.48525,1.03403 1.48525,3.10209 0,1.12804 -0.41362,1.93646 -0.39481,0.78963 -1.16563,1.29724 -0.75203,0.48882 -1.84246,0.71442 -1.09043,0.22561 -2.46287,0.22561 h -1.44765 v 4.83175 h -1.82365 V 179.9007 q 0.77082,-0.18801 1.71085,-0.24441 0.95883,-0.0752 1.74845,-0.0752 z m 0.15041,1.59805 q -1.16564,0 -1.78606,0.0564 v 5.11375 h 1.37244 q 0.94003,0 1.69206,-0.1128 0.75202,-0.1316 1.25963,-0.41361 0.52642,-0.30081 0.80843,-0.80843 0.28201,-0.50761 0.28201,-1.29724 0,-0.75202 -0.30081,-1.24083 -0.28201,-0.48882 -0.78963,-0.77083 -0.48881,-0.30081 -1.14683,-0.41361 -0.65802,-0.1128 -1.39124,-0.1128 z" style="font-style:normal;font-variant:normal;font-weight:normal;font-stretch:normal;font-size:18.8006px;line-height:1.25;font-family:Ubuntu;-inkscape-font-specification:Ubuntu;letter-spacing:0.300809px;word-spacing:0px;fill:#475e73;fill-opacity:1;stroke:none;stroke-width:0.107039" id="path901" inkscape:connector-curvature="0"></path>
        <path d="m 151.77471,192.74149 v -13.0288 h 1.78605 v 9.6447 q 0.60162,-0.99643 1.46645,-2.27487 0.88362,-1.27844 1.86125,-2.59448 0.99643,-1.33484 1.99286,-2.57568 1.01524,-1.25964 1.89886,-2.19967 h 1.44765 v 13.0288 h -1.78606 v -10.17111 q -0.52641,0.60162 -1.14683,1.39124 -0.62042,0.78963 -1.27844,1.69205 -0.65802,0.88363 -1.33484,1.84246 -0.65802,0.95883 -1.27844,1.89886 -0.62042,0.92122 -1.16564,1.78605 -0.52641,0.86483 -0.94002,1.56045 z" style="font-style:normal;font-variant:normal;font-weight:normal;font-stretch:normal;font-size:18.8006px;line-height:1.25;font-family:Ubuntu;-inkscape-font-specification:Ubuntu;letter-spacing:0.300809px;word-spacing:0px;fill:#475e73;fill-opacity:1;stroke:none;stroke-width:0.107039" id="path903" inkscape:connector-curvature="0"></path>
        <path d="m 171.36488,193.0235 q -1.37244,0 -2.50047,-0.45122 -1.12804,-0.45121 -1.93646,-1.31604 -0.80843,-0.86482 -1.25964,-2.12446 -0.43241,-1.27844 -0.43241,-2.91409 0,-1.63565 0.48881,-2.89529 0.50762,-1.27844 1.35364,-2.14326 0.84603,-0.86483 1.97406,-1.31604 1.12804,-0.45122 2.40647,-0.45122 0.80843,0 1.44765,0.11281 0.65802,0.1128 1.12803,0.2632 0.48882,0.15041 0.78963,0.30081 0.30081,0.15041 0.41361,0.22561 l -0.52642,1.50405 q -0.1692,-0.11281 -0.48881,-0.24441 -0.31961,-0.1316 -0.73322,-0.26321 -0.39482,-0.1316 -0.88363,-0.20681 -0.47002,-0.094 -0.95883,-0.094 -1.03403,0 -1.86126,0.35721 -0.82722,0.35721 -1.41004,1.03403 -0.58282,0.67682 -0.90243,1.65445 -0.30081,0.95883 -0.30081,2.16207 0,1.16564 0.26321,2.12446 0.28201,0.95883 0.82723,1.65446 0.54521,0.67682 1.35364,1.05283 0.82722,0.37601 1.91766,0.37601 1.25963,0 2.08686,-0.26321 0.82723,-0.26321 1.24084,-0.47001 l 0.47001,1.50404 q -0.1316,0.094 -0.47001,0.24441 -0.33841,0.1316 -0.84603,0.26321 -0.50761,0.1316 -1.18443,0.2256 -0.67682,0.094 -1.46645,0.094 z" style="font-style:normal;font-variant:normal;font-weight:normal;font-stretch:normal;font-size:18.8006px;line-height:1.25;font-family:Ubuntu;-inkscape-font-specification:Ubuntu;letter-spacing:0.300809px;word-spacing:0px;fill:#475e73;fill-opacity:1;stroke:none;stroke-width:0.107039" id="path905" inkscape:connector-curvature="0"></path>
        <path d="m 186.74369,179.71269 v 1.57925 h -4.09852 v 11.44955 h -1.82366 v -11.44955 h -4.09852 v -1.57925 z" style="font-style:normal;font-variant:normal;font-weight:normal;font-stretch:normal;font-size:18.8006px;line-height:1.25;font-family:Ubuntu;-inkscape-font-specification:Ubuntu;letter-spacing:0.300809px;word-spacing:0px;fill:#475e73;fill-opacity:1;stroke:none;stroke-width:0.107039" id="path907" inkscape:connector-curvature="0"></path>
        <path d="m 196.46354,192.74149 q -0.31961,-0.84603 -0.60162,-1.65445 -0.282,-0.82723 -0.58281,-1.67325 h -5.90338 l -1.18444,3.3277 h -1.89886 q 0.75203,-2.06806 1.41005,-3.81652 0.65802,-1.76725 1.27844,-3.3465 0.63921,-1.57925 1.25963,-3.00809 0.62042,-1.44764 1.29724,-2.85769 h 1.67325 q 0.67682,1.41005 1.29724,2.85769 0.62042,1.42884 1.24084,3.00809 0.63922,1.57925 1.29724,3.3465 0.65802,1.74846 1.41004,3.81652 z m -1.71085,-4.83175 q -0.60162,-1.63565 -1.20324,-3.15849 -0.58281,-1.54165 -1.22203,-2.95169 -0.65802,1.41004 -1.25964,2.95169 -0.58282,1.52284 -1.16564,3.15849 z" style="font-style:normal;font-variant:normal;font-weight:normal;font-stretch:normal;font-size:18.8006px;line-height:1.25;font-family:Ubuntu;-inkscape-font-specification:Ubuntu;letter-spacing:0.300809px;word-spacing:0px;fill:#475e73;fill-opacity:1;stroke:none;stroke-width:0.107039" id="path909" inkscape:connector-curvature="0"></path>
        <path d="m 67.983869,174.11777 q -0.08536,-0.17073 -0.209528,-0.38025 -0.124164,-0.20953 -0.27161,-0.42682 -0.147446,-0.22505 -0.302652,-0.44234 -0.155206,-0.21729 -0.302651,-0.41129 -0.147446,0.194 -0.302652,0.41905 -0.155206,0.21729 -0.302652,0.44234 -0.139685,0.21729 -0.26385,0.42682 -0.124165,0.20952 -0.209528,0.37249 h -0.744989 q 0.271611,-0.5277 0.644105,-1.07092 0.380255,-0.55098 0.752749,-1.04764 l -1.334771,-1.9168 h 0.814831 l 0.962277,1.41238 0.970038,-1.41238 h 0.768269 l -1.30373,1.87024 q 0.372494,0.50442 0.760509,1.07092 0.395775,0.55874 0.667386,1.0942 z" style="font-style:normal;font-variant:normal;font-weight:normal;font-stretch:normal;font-size:7.7603px;line-height:1.25;font-family:Ubuntu;-inkscape-font-specification:Ubuntu;letter-spacing:0px;word-spacing:0px;fill:#475e73;fill-opacity:1;stroke:none;stroke-width:0.107039" id="path828" inkscape:connector-curvature="0"></path>
        <path d="m 72.337394,172.10785 q 0,-0.70618 -0.349213,-1.08644 -0.349213,-0.38025 -0.931236,-0.38025 -0.325932,0 -0.51218,0.0233 -0.178486,0.0233 -0.287131,0.0543 v 2.54538 q 0.131925,0.10864 0.380255,0.20953 0.24833,0.10088 0.543221,0.10088 0.310412,0 0.5277,-0.10864 0.225049,-0.11641 0.364734,-0.31042 0.139686,-0.20176 0.201768,-0.46561 0.06208,-0.27162 0.06208,-0.58203 z m 0.752749,0 q 0,0.45786 -0.124164,0.84588 -0.116405,0.38801 -0.349214,0.66738 -0.232809,0.27937 -0.574262,0.43458 -0.333693,0.1552 -0.768269,0.1552 -0.349214,0 -0.620824,-0.0931 -0.263851,-0.0931 -0.395776,-0.17849 v 1.61415 h -0.721707 v -5.34685 q 0.256089,-0.0621 0.636344,-0.13193 0.388015,-0.0776 0.892434,-0.0776 0.465618,0 0.838113,0.14745 0.372494,0.14744 0.636344,0.41905 0.26385,0.27161 0.403536,0.66739 0.147445,0.38801 0.147445,0.87691 z" style="font-style:normal;font-variant:normal;font-weight:normal;font-stretch:normal;font-size:7.7603px;line-height:1.25;font-family:Ubuntu;-inkscape-font-specification:Ubuntu;letter-spacing:0px;word-spacing:0px;fill:#475e73;fill-opacity:1;stroke:none;stroke-width:0.107039" id="path830" inkscape:connector-curvature="0"></path>
        <path d="m 77.497984,170.08241 v 4.03536 h -0.698427 v -3.07308 q -0.232809,0.29489 -0.51218,0.69067 -0.27937,0.39577 -0.558741,0.82259 -0.279371,0.41906 -0.535461,0.83035 -0.25609,0.4113 -0.442337,0.72947 h -0.644105 v -4.03536 h 0.698427 v 2.90236 q 0.201768,-0.3337 0.457858,-0.72947 0.25609,-0.40354 0.5277,-0.79155 0.279371,-0.39578 0.550981,-0.75275 0.279371,-0.36473 0.51994,-0.62859 z" style="font-style:normal;font-variant:normal;font-weight:normal;font-stretch:normal;font-size:7.7603px;line-height:1.25;font-family:Ubuntu;-inkscape-font-specification:Ubuntu;letter-spacing:0px;word-spacing:0px;fill:#475e73;fill-opacity:1;stroke:none;stroke-width:0.107039" id="path832" inkscape:connector-curvature="0"></path>
        <path d="m 80.493445,174.21089 q -0.488899,0 -0.861393,-0.1552 -0.364734,-0.15521 -0.620824,-0.43458 -0.24833,-0.27937 -0.372494,-0.65962 -0.124165,-0.38802 -0.124165,-0.85364 0,-0.46561 0.131925,-0.85363 0.139685,-0.38801 0.388015,-0.66739 0.248329,-0.28713 0.605303,-0.44233 0.364734,-0.16297 0.807071,-0.16297 0.271611,0 0.543221,0.0466 0.27161,0.0466 0.51994,0.14745 l -0.162966,0.61306 q -0.162967,-0.0776 -0.380255,-0.12416 -0.209528,-0.0466 -0.450097,-0.0466 -0.605304,0 -0.931236,0.38025 -0.318172,0.38025 -0.318172,1.10972 0,0.32594 0.06984,0.59755 0.0776,0.27161 0.232809,0.46561 0.162967,0.19401 0.411296,0.30266 0.24833,0.10088 0.605303,0.10088 0.287132,0 0.51994,-0.0543 0.232809,-0.0543 0.364735,-0.11641 l 0.100883,0.60531 q -0.06208,0.0388 -0.178486,0.0776 -0.116405,0.031 -0.263851,0.0543 -0.147445,0.031 -0.318172,0.0466 -0.162966,0.0233 -0.318172,0.0233 z" style="font-style:normal;font-variant:normal;font-weight:normal;font-stretch:normal;font-size:7.7603px;line-height:1.25;font-family:Ubuntu;-inkscape-font-specification:Ubuntu;letter-spacing:0px;word-spacing:0px;fill:#475e73;fill-opacity:1;stroke:none;stroke-width:0.107039" id="path834" inkscape:connector-curvature="0"></path>
        <path d="m 85.312573,170.08241 v 0.60531 h -1.31149 v 3.43005 h -0.721708 v -3.43005 h -1.311491 v -0.60531 z" style="font-style:normal;font-variant:normal;font-weight:normal;font-stretch:normal;font-size:7.7603px;line-height:1.25;font-family:Ubuntu;-inkscape-font-specification:Ubuntu;letter-spacing:0px;word-spacing:0px;fill:#475e73;fill-opacity:1;stroke:none;stroke-width:0.107039" id="path836" inkscape:connector-curvature="0"></path>
        <path d="m 89.448806,170.08241 v 4.03536 h -0.698427 v -3.07308 q -0.232809,0.29489 -0.51218,0.69067 -0.279371,0.39577 -0.558741,0.82259 -0.279371,0.41906 -0.535461,0.83035 -0.25609,0.4113 -0.442337,0.72947 h -0.644105 v -4.03536 h 0.698427 v 2.90236 q 0.201768,-0.3337 0.457858,-0.72947 0.25609,-0.40354 0.5277,-0.79155 0.279371,-0.39578 0.550981,-0.75275 0.279371,-0.36473 0.51994,-0.62859 z" style="font-style:normal;font-variant:normal;font-weight:normal;font-stretch:normal;font-size:7.7603px;line-height:1.25;font-family:Ubuntu;-inkscape-font-specification:Ubuntu;letter-spacing:0px;word-spacing:0px;fill:#475e73;fill-opacity:1;stroke:none;stroke-width:0.107039" id="path838" inkscape:connector-curvature="0"></path>
        <path d="m 92.056253,173.59783 q 0.25609,0 0.450097,-0.008 0.201768,-0.0155 0.333693,-0.0466 v -1.20285 q -0.0776,-0.0388 -0.25609,-0.0621 -0.170726,-0.031 -0.419056,-0.031 -0.162966,0 -0.349213,0.0233 -0.178487,0.0233 -0.333693,0.10088 -0.147446,0.0699 -0.24833,0.20177 -0.100884,0.12417 -0.100884,0.33369 0,0.38802 0.24833,0.54322 0.248329,0.14745 0.675146,0.14745 z m -0.06208,-3.6163 q 0.434577,0 0.729468,0.11641 0.302652,0.10864 0.481139,0.31817 0.186247,0.20177 0.26385,0.4889 0.0776,0.27937 0.0776,0.62082 v 2.5221 q -0.09312,0.0155 -0.26385,0.0466 -0.162966,0.0233 -0.372494,0.0466 -0.209528,0.0233 -0.457858,0.0388 -0.240569,0.0233 -0.481138,0.0233 -0.341454,0 -0.628585,-0.0698 -0.287131,-0.0698 -0.496659,-0.21729 -0.209528,-0.1552 -0.325932,-0.40353 -0.116405,-0.24833 -0.116405,-0.59755 0,-0.33369 0.131925,-0.57426 0.139686,-0.24057 0.372495,-0.38801 0.232809,-0.14745 0.54322,-0.21729 0.310412,-0.0698 0.651866,-0.0698 0.108644,0 0.225048,0.0155 0.116405,0.008 0.217289,0.031 0.108644,0.0155 0.186247,0.031 0.0776,0.0155 0.108644,0.0233 v -0.20177 q 0,-0.17848 -0.0388,-0.34921 -0.0388,-0.17849 -0.139685,-0.31041 -0.100884,-0.13969 -0.279371,-0.21729 -0.170726,-0.0854 -0.450097,-0.0854 -0.356974,0 -0.628584,0.0543 -0.26385,0.0466 -0.395775,0.10088 l -0.08536,-0.59754 q 0.139686,-0.0621 0.465618,-0.11641 0.325933,-0.0621 0.706187,-0.0621 z" style="font-style:normal;font-variant:normal;font-weight:normal;font-stretch:normal;font-size:7.7603px;line-height:1.25;font-family:Ubuntu;-inkscape-font-specification:Ubuntu;letter-spacing:0px;word-spacing:0px;fill:#475e73;fill-opacity:1;stroke:none;stroke-width:0.107039" id="path840" inkscape:connector-curvature="0"></path>
        <path d="m 98.047198,174.11777 h -0.721707 v -1.78487 h -1.862472 v 1.78487 h -0.721708 v -4.03536 h 0.721708 v 1.64519 h 1.862472 v -1.64519 h 0.721707 z" style="font-style:normal;font-variant:normal;font-weight:normal;font-stretch:normal;font-size:7.7603px;line-height:1.25;font-family:Ubuntu;-inkscape-font-specification:Ubuntu;letter-spacing:0px;word-spacing:0px;fill:#475e73;fill-opacity:1;stroke:none;stroke-width:0.107039" id="path842" inkscape:connector-curvature="0"></path>
        <path d="m 101.04266,174.21089 q -0.4889,0 -0.86139,-0.1552 -0.364735,-0.15521 -0.620825,-0.43458 -0.248329,-0.27937 -0.372494,-0.65962 -0.124165,-0.38802 -0.124165,-0.85364 0,-0.46561 0.131925,-0.85363 0.139685,-0.38801 0.388015,-0.66739 0.24833,-0.28713 0.605304,-0.44233 0.36473,-0.16297 0.80707,-0.16297 0.27161,0 0.54322,0.0466 0.27161,0.0466 0.51994,0.14745 l -0.16297,0.61306 q -0.16296,-0.0776 -0.38025,-0.12416 -0.20953,-0.0466 -0.4501,-0.0466 -0.6053,0 -0.93123,0.38025 -0.318175,0.38025 -0.318175,1.10972 0,0.32594 0.06984,0.59755 0.0776,0.27161 0.232815,0.46561 0.16296,0.19401 0.41129,0.30266 0.24833,0.10088 0.60531,0.10088 0.28713,0 0.51994,-0.0543 0.2328,-0.0543 0.36473,-0.11641 l 0.10088,0.60531 q -0.0621,0.0388 -0.17848,0.0776 -0.11641,0.031 -0.26385,0.0543 -0.14745,0.031 -0.31818,0.0466 -0.16296,0.0233 -0.31817,0.0233 z" style="font-style:normal;font-variant:normal;font-weight:normal;font-stretch:normal;font-size:7.7603px;line-height:1.25;font-family:Ubuntu;-inkscape-font-specification:Ubuntu;letter-spacing:0px;word-spacing:0px;fill:#475e73;fill-opacity:1;stroke:none;stroke-width:0.107039" id="path844" inkscape:connector-curvature="0"></path>
        <path d="m 104.37182,171.92161 q 0.24056,0.17072 0.51994,0.43457 0.27937,0.25609 0.54322,0.55874 0.27161,0.30266 0.50442,0.62083 0.2328,0.31041 0.39577,0.58202 h -0.85363 q -0.17073,-0.26385 -0.40354,-0.53546 -0.22505,-0.27937 -0.47338,-0.53546 -0.24832,-0.25609 -0.50441,-0.47338 -0.25609,-0.21729 -0.48114,-0.36473 v 1.90903 h -0.72171 v -4.03536 h 0.72171 v 1.73055 q 0.18624,-0.17849 0.42681,-0.41129 0.24057,-0.24057 0.48114,-0.48114 0.24833,-0.24833 0.45786,-0.46562 0.20953,-0.22505 0.34145,-0.3725 h 0.83811 q -0.17072,0.18625 -0.40353,0.42682 -0.22505,0.23281 -0.47338,0.48114 -0.24057,0.24833 -0.48114,0.49666 -0.24057,0.24057 -0.43457,0.43458 z" style="font-style:normal;font-variant:normal;font-weight:normal;font-stretch:normal;font-size:7.7603px;line-height:1.25;font-family:Ubuntu;-inkscape-font-specification:Ubuntu;letter-spacing:0px;word-spacing:0px;fill:#475e73;fill-opacity:1;stroke:none;stroke-width:0.107039" id="path846" inkscape:connector-curvature="0"></path>
        <path d="m 108.43044,173.59783 q 0.25609,0 0.4501,-0.008 0.20177,-0.0155 0.33369,-0.0466 v -1.20285 q -0.0776,-0.0388 -0.25609,-0.0621 -0.17072,-0.031 -0.41905,-0.031 -0.16297,0 -0.34922,0.0233 -0.17848,0.0233 -0.33369,0.10088 -0.14745,0.0699 -0.24833,0.20177 -0.10088,0.12417 -0.10088,0.33369 0,0.38802 0.24833,0.54322 0.24833,0.14745 0.67514,0.14745 z m -0.0621,-3.6163 q 0.43458,0 0.72947,0.11641 0.30265,0.10864 0.48114,0.31817 0.18624,0.20177 0.26385,0.4889 0.0776,0.27937 0.0776,0.62082 v 2.5221 q -0.0931,0.0155 -0.26385,0.0466 -0.16297,0.0233 -0.37249,0.0466 -0.20953,0.0233 -0.45786,0.0388 -0.24057,0.0233 -0.48114,0.0233 -0.34145,0 -0.62859,-0.0698 -0.28713,-0.0698 -0.49665,-0.21729 -0.20953,-0.1552 -0.32594,-0.40353 -0.1164,-0.24833 -0.1164,-0.59755 0,-0.33369 0.13192,-0.57426 0.13969,-0.24057 0.3725,-0.38801 0.23281,-0.14745 0.54322,-0.21729 0.31041,-0.0698 0.65186,-0.0698 0.10865,0 0.22505,0.0155 0.11641,0.008 0.21729,0.031 0.10865,0.0155 0.18625,0.031 0.0776,0.0155 0.10864,0.0233 v -0.20177 q 0,-0.17848 -0.0388,-0.34921 -0.0388,-0.17849 -0.13968,-0.31041 -0.10089,-0.13969 -0.27938,-0.21729 -0.17072,-0.0854 -0.45009,-0.0854 -0.35698,0 -0.62859,0.0543 -0.26385,0.0466 -0.39577,0.10088 l -0.0854,-0.59754 q 0.13969,-0.0621 0.46562,-0.11641 0.32594,-0.0621 0.70619,-0.0621 z" style="font-style:normal;font-variant:normal;font-weight:normal;font-stretch:normal;font-size:7.7603px;line-height:1.25;font-family:Ubuntu;-inkscape-font-specification:Ubuntu;letter-spacing:0px;word-spacing:0px;fill:#475e73;fill-opacity:1;stroke:none;stroke-width:0.107039" id="path848" inkscape:connector-curvature="0"></path>
        <path d="m 112.78397,172.55019 q -0.11641,0 -0.22505,0 -0.10865,-0.008 -0.20953,-0.0155 -0.24833,0.37249 -0.48114,0.79931 -0.22505,0.41906 -0.40353,0.78379 h -0.72947 q 0.0931,-0.22505 0.21729,-0.45786 0.12416,-0.24057 0.24833,-0.46562 0.13192,-0.22504 0.26385,-0.42681 0.13192,-0.20177 0.24833,-0.36474 -0.21729,-0.0776 -0.35698,-0.18624 -0.13968,-0.11641 -0.22505,-0.25609 -0.0854,-0.13969 -0.12416,-0.29489 -0.031,-0.16297 -0.031,-0.32594 0,-0.34145 0.12416,-0.59754 0.13193,-0.25609 0.35698,-0.41906 0.22504,-0.17072 0.5277,-0.25609 0.31041,-0.0854 0.67514,-0.0854 0.51218,0 0.86916,0.0466 0.35697,0.0466 0.59754,0.10865 v 3.98103 h -0.71395 v -1.56758 z m 0.62858,-1.93231 q -0.0854,-0.0155 -0.28713,-0.031 -0.19401,-0.0155 -0.4501,-0.0155 -0.44233,0 -0.71395,0.18625 -0.27161,0.17849 -0.27161,0.57426 0,0.38802 0.27938,0.53546 0.27937,0.14745 0.7217,0.14745 h 0.72171 z" style="font-style:normal;font-variant:normal;font-weight:normal;font-stretch:normal;font-size:7.7603px;line-height:1.25;font-family:Ubuntu;-inkscape-font-specification:Ubuntu;letter-spacing:0px;word-spacing:0px;fill:#475e73;fill-opacity:1;stroke:none;stroke-width:0.107039" id="path850" inkscape:connector-curvature="0"></path>
        <path d="m 116.93571,172.10785 q 0,-0.53546 0.1552,-0.93123 0.15521,-0.40354 0.4113,-0.66739 0.25609,-0.26385 0.58978,-0.39577 0.33369,-0.13193 0.68291,-0.13193 0.81483,0 1.24941,0.51218 0.43457,0.50442 0.43457,1.5443 0,0.0466 0,0.12417 0,0.0698 -0.008,0.13192 h -2.76266 q 0.0466,0.62858 0.36473,0.95452 0.31817,0.32593 0.99332,0.32593 0.38025,0 0.63634,-0.0621 0.26385,-0.0699 0.39578,-0.13193 l 0.10088,0.60531 q -0.13192,0.0698 -0.46562,0.14744 -0.32593,0.0776 -0.74498,0.0776 -0.5277,0 -0.91572,-0.1552 -0.38025,-0.16297 -0.62858,-0.44234 -0.24833,-0.27937 -0.3725,-0.65962 -0.1164,-0.38802 -0.1164,-0.84588 z m 2.77042,-0.39577 q 0.008,-0.4889 -0.24833,-0.79931 -0.24832,-0.31818 -0.69066,-0.31818 -0.24833,0 -0.44234,0.10089 -0.18625,0.0931 -0.31817,0.24833 -0.13193,0.1552 -0.20953,0.35697 -0.0698,0.20177 -0.0931,0.4113 z" style="font-style:normal;font-variant:normal;font-weight:normal;font-stretch:normal;font-size:7.7603px;line-height:1.25;font-family:Ubuntu;-inkscape-font-specification:Ubuntu;letter-spacing:0px;word-spacing:0px;fill:#475e73;fill-opacity:1;stroke:none;stroke-width:0.107039" id="path852" inkscape:connector-curvature="0"></path>
        <path d="m 122.20493,173.57455 q 0.0466,0.008 0.13193,0.0155 0.0854,0.008 0.19401,0.0155 0.10864,0 0.22504,0.008 0.12417,0 0.23281,0 0.22505,0 0.42682,-0.031 0.20953,-0.031 0.35697,-0.10864 0.15521,-0.0776 0.24057,-0.20177 0.0931,-0.13193 0.0931,-0.3337 0,-0.194 -0.0854,-0.31817 -0.0776,-0.13192 -0.21729,-0.20953 -0.13968,-0.0776 -0.33369,-0.10864 -0.18625,-0.031 -0.40353,-0.031 h -0.8614 z m 0.76827,-1.83919 q 0.20953,0 0.38026,-0.0233 0.17848,-0.031 0.30265,-0.10089 0.13192,-0.0698 0.20177,-0.18624 0.0776,-0.11641 0.0776,-0.29489 0,-0.18625 -0.0931,-0.2949 -0.0931,-0.10864 -0.24833,-0.16296 -0.14745,-0.0621 -0.34146,-0.0776 -0.18624,-0.0233 -0.38025,-0.0233 -0.17849,0 -0.36474,0.008 -0.17848,0.008 -0.30265,0.0155 v 1.14077 z m -0.0155,2.45225 q -0.45786,0 -0.84587,-0.0466 -0.38802,-0.0388 -0.61306,-0.0931 v -3.92671 q 0.22504,-0.0543 0.61306,-0.0931 0.38801,-0.0466 0.84587,-0.0466 0.31817,0 0.62083,0.0543 0.30265,0.0543 0.53546,0.18625 0.23281,0.12417 0.37249,0.34921 0.14745,0.21729 0.14745,0.54322 0,0.2949 -0.14745,0.50442 -0.14744,0.20953 -0.39577,0.32594 0.33369,0.1164 0.5277,0.34921 0.20176,0.22505 0.20176,0.63634 0,0.36474 -0.14744,0.60531 -0.13969,0.24057 -0.39578,0.38801 -0.24833,0.14745 -0.58978,0.20177 -0.34145,0.0621 -0.72947,0.0621 z" style="font-style:normal;font-variant:normal;font-weight:normal;font-stretch:normal;font-size:7.7603px;line-height:1.25;font-family:Ubuntu;-inkscape-font-specification:Ubuntu;letter-spacing:0px;word-spacing:0px;fill:#475e73;fill-opacity:1;stroke:none;stroke-width:0.107039" id="path854" inkscape:connector-curvature="0"></path>
        <path d="m 127.11719,173.59783 q 0.25609,0 0.4501,-0.008 0.20177,-0.0155 0.33369,-0.0466 v -1.20285 q -0.0776,-0.0388 -0.25609,-0.0621 -0.17073,-0.031 -0.41906,-0.031 -0.16296,0 -0.34921,0.0233 -0.17849,0.0233 -0.33369,0.10088 -0.14745,0.0699 -0.24833,0.20177 -0.10088,0.12417 -0.10088,0.33369 0,0.38802 0.24832,0.54322 0.24833,0.14745 0.67515,0.14745 z m -0.0621,-3.6163 q 0.43458,0 0.72947,0.11641 0.30265,0.10864 0.48113,0.31817 0.18625,0.20177 0.26386,0.4889 0.0776,0.27937 0.0776,0.62082 v 2.5221 q -0.0931,0.0155 -0.26385,0.0466 -0.16297,0.0233 -0.3725,0.0466 -0.20952,0.0233 -0.45785,0.0388 -0.24057,0.0233 -0.48114,0.0233 -0.34146,0 -0.62859,-0.0698 -0.28713,-0.0698 -0.49666,-0.21729 -0.20952,-0.1552 -0.32593,-0.40353 -0.1164,-0.24833 -0.1164,-0.59755 0,-0.33369 0.13192,-0.57426 0.13969,-0.24057 0.3725,-0.38801 0.23281,-0.14745 0.54322,-0.21729 0.31041,-0.0698 0.65186,-0.0698 0.10865,0 0.22505,0.0155 0.11641,0.008 0.21729,0.031 0.10864,0.0155 0.18625,0.031 0.0776,0.0155 0.10864,0.0233 v -0.20177 q 0,-0.17848 -0.0388,-0.34921 -0.0388,-0.17849 -0.13969,-0.31041 -0.10088,-0.13969 -0.27937,-0.21729 -0.17072,-0.0854 -0.45009,-0.0854 -0.35698,0 -0.62859,0.0543 -0.26385,0.0466 -0.39577,0.10088 l -0.0854,-0.59754 q 0.13969,-0.0621 0.46562,-0.11641 0.32593,-0.0621 0.70619,-0.0621 z" style="font-style:normal;font-variant:normal;font-weight:normal;font-stretch:normal;font-size:7.7603px;line-height:1.25;font-family:Ubuntu;-inkscape-font-specification:Ubuntu;letter-spacing:0px;word-spacing:0px;fill:#475e73;fill-opacity:1;stroke:none;stroke-width:0.107039" id="path856" inkscape:connector-curvature="0"></path>
        <path d="m 133.10814,174.11777 h -0.72171 v -1.78487 h -1.86247 v 1.78487 h -0.72171 v -4.03536 h 0.72171 v 1.64519 h 1.86247 v -1.64519 h 0.72171 z" style="font-style:normal;font-variant:normal;font-weight:normal;font-stretch:normal;font-size:7.7603px;line-height:1.25;font-family:Ubuntu;-inkscape-font-specification:Ubuntu;letter-spacing:0px;word-spacing:0px;fill:#475e73;fill-opacity:1;stroke:none;stroke-width:0.107039" id="path858" inkscape:connector-curvature="0"></path>
        <path d="m 136.84859,170.68772 h -1.77711 v 3.43005 h -0.72171 v -4.03536 h 2.49882 z" style="font-style:normal;font-variant:normal;font-weight:normal;font-stretch:normal;font-size:7.7603px;line-height:1.25;font-family:Ubuntu;-inkscape-font-specification:Ubuntu;letter-spacing:0px;word-spacing:0px;fill:#475e73;fill-opacity:1;stroke:none;stroke-width:0.107039" id="path860" inkscape:connector-curvature="0"></path>
        <path d="m 137.36852,172.10785 q 0,-0.53546 0.15521,-0.93123 0.1552,-0.40354 0.41129,-0.66739 0.25609,-0.26385 0.58979,-0.39577 0.33369,-0.13193 0.6829,-0.13193 0.81484,0 1.24941,0.51218 0.43458,0.50442 0.43458,1.5443 0,0.0466 0,0.12417 0,0.0698 -0.008,0.13192 h -2.76267 q 0.0466,0.62858 0.36474,0.95452 0.31817,0.32593 0.99331,0.32593 0.38026,0 0.63635,-0.0621 0.26385,-0.0699 0.39577,-0.13193 l 0.10089,0.60531 q -0.13193,0.0698 -0.46562,0.14744 -0.32593,0.0776 -0.74499,0.0776 -0.5277,0 -0.91571,-0.1552 -0.38026,-0.16297 -0.62859,-0.44234 -0.24833,-0.27937 -0.37249,-0.65962 -0.11641,-0.38802 -0.11641,-0.84588 z m 2.77043,-0.39577 q 0.008,-0.4889 -0.24833,-0.79931 -0.24833,-0.31818 -0.69067,-0.31818 -0.24833,0 -0.44233,0.10089 -0.18625,0.0931 -0.31818,0.24833 -0.13192,0.1552 -0.20952,0.35697 -0.0699,0.20177 -0.0931,0.4113 z" style="font-style:normal;font-variant:normal;font-weight:normal;font-stretch:normal;font-size:7.7603px;line-height:1.25;font-family:Ubuntu;-inkscape-font-specification:Ubuntu;letter-spacing:0px;word-spacing:0px;fill:#475e73;fill-opacity:1;stroke:none;stroke-width:0.107039" id="path862" inkscape:connector-curvature="0"></path>
        <path d="m 143.33618,170.68772 q 0,0.25609 -0.0155,0.55098 -0.008,0.28713 -0.0388,0.58202 -0.031,0.28713 -0.0854,0.57426 -0.0543,0.27937 -0.13969,0.5277 -0.0854,0.24833 -0.21728,0.46562 -0.12417,0.21729 -0.31042,0.38802 -0.18624,0.16296 -0.43457,0.27937 -0.24833,0.10864 -0.58202,0.13968 l -0.10089,-0.6053 q 0.38026,-0.0776 0.59754,-0.28713 0.22505,-0.20953 0.35698,-0.51218 0.1164,-0.26385 0.17072,-0.59754 0.0543,-0.3337 0.0776,-0.69067 0.0233,-0.36473 0.0233,-0.72947 0.008,-0.36473 0.008,-0.69067 h 2.68506 v 4.03536 h -0.72171 v -3.43005 z" style="font-style:normal;font-variant:normal;font-weight:normal;font-stretch:normal;font-size:7.7603px;line-height:1.25;font-family:Ubuntu;-inkscape-font-specification:Ubuntu;letter-spacing:0px;word-spacing:0px;fill:#475e73;fill-opacity:1;stroke:none;stroke-width:0.107039" id="path864" inkscape:connector-curvature="0"></path>
        <path d="m 148.101,173.61335 q 0.45785,0 0.7217,-0.17849 0.26385,-0.17848 0.26385,-0.57426 0,-0.19401 -0.0776,-0.33369 -0.0776,-0.13969 -0.21729,-0.22505 -0.13192,-0.0931 -0.31041,-0.13192 -0.17849,-0.0466 -0.38025,-0.0466 -0.20953,0 -0.43458,0.0155 -0.21729,0.008 -0.3725,0.0466 v 1.38909 q 0.0466,0.008 0.13969,0.0155 0.0931,0.008 0.20177,0.0155 0.1164,0 0.23281,0.008 0.12416,0 0.23281,0 z m -1.52878,0.41906 v -3.95 h 0.7217 v 1.5443 q 0.0621,-0.0155 0.16297,-0.031 0.10865,-0.0155 0.22505,-0.031 0.12416,-0.0155 0.25609,-0.0233 0.13192,-0.008 0.24833,-0.008 0.33369,0 0.62858,0.0776 0.29489,0.0699 0.51218,0.23281 0.22505,0.15521 0.35698,0.4113 0.13192,0.24833 0.13192,0.59754 0,0.36474 -0.12416,0.62083 -0.12417,0.25609 -0.35698,0.41905 -0.23281,0.16297 -0.55874,0.23281 -0.31817,0.0776 -0.71395,0.0776 -0.38801,0 -0.7605,-0.0466 -0.3725,-0.0388 -0.72947,-0.12416 z" style="font-style:normal;font-variant:normal;font-weight:normal;font-stretch:normal;font-size:7.7603px;line-height:1.25;font-family:Ubuntu;-inkscape-font-specification:Ubuntu;letter-spacing:0px;word-spacing:0px;fill:#475e73;fill-opacity:1;stroke:none;stroke-width:0.107039" id="path866" inkscape:connector-curvature="0"></path>
        <path d="m 152.42349,174.21089 q -0.4889,0 -0.8614,-0.1552 -0.36473,-0.15521 -0.62082,-0.43458 -0.24833,-0.27937 -0.37249,-0.65962 -0.12417,-0.38802 -0.12417,-0.85364 0,-0.46561 0.13193,-0.85363 0.13968,-0.38801 0.38801,-0.66739 0.24833,-0.28713 0.6053,-0.44233 0.36474,-0.16297 0.80708,-0.16297 0.27161,0 0.54322,0.0466 0.27161,0.0466 0.51994,0.14745 l -0.16297,0.61306 q -0.16297,-0.0776 -0.38025,-0.12416 -0.20953,-0.0466 -0.4501,-0.0466 -0.60531,0 -0.93124,0.38025 -0.31817,0.38025 -0.31817,1.10972 0,0.32594 0.0698,0.59755 0.0776,0.27161 0.23281,0.46561 0.16297,0.19401 0.4113,0.30266 0.24833,0.10088 0.6053,0.10088 0.28713,0 0.51994,-0.0543 0.23281,-0.0543 0.36473,-0.11641 l 0.10089,0.60531 q -0.0621,0.0388 -0.17849,0.0776 -0.1164,0.031 -0.26385,0.0543 -0.14744,0.031 -0.31817,0.0466 -0.16297,0.0233 -0.31817,0.0233 z" style="font-style:normal;font-variant:normal;font-weight:normal;font-stretch:normal;font-size:7.7603px;line-height:1.25;font-family:Ubuntu;-inkscape-font-specification:Ubuntu;letter-spacing:0px;word-spacing:0px;fill:#475e73;fill-opacity:1;stroke:none;stroke-width:0.107039" id="path868" inkscape:connector-curvature="0"></path>
        <path d="m 155.75264,171.92161 q 0.24057,0.17072 0.51994,0.43457 0.27937,0.25609 0.54322,0.55874 0.27161,0.30266 0.50442,0.62083 0.23281,0.31041 0.39577,0.58202 h -0.85363 q -0.17073,-0.26385 -0.40354,-0.53546 -0.22504,-0.27937 -0.47337,-0.53546 -0.24833,-0.25609 -0.50442,-0.47338 -0.25609,-0.21729 -0.48114,-0.36473 v 1.90903 h -0.72171 v -4.03536 h 0.72171 v 1.73055 q 0.18625,-0.17849 0.42681,-0.41129 0.24057,-0.24057 0.48114,-0.48114 0.24833,-0.24833 0.45786,-0.46562 0.20953,-0.22505 0.34145,-0.3725 h 0.83812 q -0.17073,0.18625 -0.40354,0.42682 -0.22505,0.23281 -0.47338,0.48114 -0.24057,0.24833 -0.48114,0.49666 -0.24057,0.24057 -0.43457,0.43458 z" style="font-style:normal;font-variant:normal;font-weight:normal;font-stretch:normal;font-size:7.7603px;line-height:1.25;font-family:Ubuntu;-inkscape-font-specification:Ubuntu;letter-spacing:0px;word-spacing:0px;fill:#475e73;fill-opacity:1;stroke:none;stroke-width:0.107039" id="path870" inkscape:connector-curvature="0"></path>
        <path d="m 159.81127,173.59783 q 0.25609,0 0.45009,-0.008 0.20177,-0.0155 0.3337,-0.0466 v -1.20285 q -0.0776,-0.0388 -0.25609,-0.0621 -0.17073,-0.031 -0.41906,-0.031 -0.16296,0 -0.34921,0.0233 -0.17849,0.0233 -0.33369,0.10088 -0.14745,0.0699 -0.24833,0.20177 -0.10089,0.12417 -0.10089,0.33369 0,0.38802 0.24833,0.54322 0.24833,0.14745 0.67515,0.14745 z m -0.0621,-3.6163 q 0.43458,0 0.72947,0.11641 0.30265,0.10864 0.48114,0.31817 0.18625,0.20177 0.26385,0.4889 0.0776,0.27937 0.0776,0.62082 v 2.5221 q -0.0931,0.0155 -0.26385,0.0466 -0.16296,0.0233 -0.37249,0.0466 -0.20953,0.0233 -0.45786,0.0388 -0.24057,0.0233 -0.48114,0.0233 -0.34145,0 -0.62858,-0.0698 -0.28713,-0.0698 -0.49666,-0.21729 -0.20953,-0.1552 -0.32593,-0.40353 -0.11641,-0.24833 -0.11641,-0.59755 0,-0.33369 0.13193,-0.57426 0.13968,-0.24057 0.37249,-0.38801 0.23281,-0.14745 0.54322,-0.21729 0.31042,-0.0698 0.65187,-0.0698 0.10864,0 0.22505,0.0155 0.1164,0.008 0.21729,0.031 0.10864,0.0155 0.18624,0.031 0.0776,0.0155 0.10865,0.0233 v -0.20177 q 0,-0.17848 -0.0388,-0.34921 -0.0388,-0.17849 -0.13969,-0.31041 -0.10088,-0.13969 -0.27937,-0.21729 -0.17073,-0.0854 -0.4501,-0.0854 -0.35697,0 -0.62858,0.0543 -0.26385,0.0466 -0.39578,0.10088 l -0.0854,-0.59754 q 0.13969,-0.0621 0.46562,-0.11641 0.32593,-0.0621 0.70618,-0.0621 z" style="font-style:normal;font-variant:normal;font-weight:normal;font-stretch:normal;font-size:7.7603px;line-height:1.25;font-family:Ubuntu;-inkscape-font-specification:Ubuntu;letter-spacing:0px;word-spacing:0px;fill:#475e73;fill-opacity:1;stroke:none;stroke-width:0.107039" id="path872" inkscape:connector-curvature="0"></path>
        <path d="m 164.16478,172.55019 q -0.1164,0 -0.22504,0 -0.10865,-0.008 -0.20953,-0.0155 -0.24833,0.37249 -0.48114,0.79931 -0.22505,0.41906 -0.40354,0.78379 h -0.72946 q 0.0931,-0.22505 0.21728,-0.45786 0.12417,-0.24057 0.24833,-0.46562 0.13193,-0.22504 0.26385,-0.42681 0.13193,-0.20177 0.24833,-0.36474 -0.21729,-0.0776 -0.35697,-0.18624 -0.13969,-0.11641 -0.22505,-0.25609 -0.0854,-0.13969 -0.12416,-0.29489 -0.031,-0.16297 -0.031,-0.32594 0,-0.34145 0.12417,-0.59754 0.13192,-0.25609 0.35697,-0.41906 0.22505,-0.17072 0.5277,-0.25609 0.31042,-0.0854 0.67515,-0.0854 0.51218,0 0.86915,0.0466 0.35698,0.0466 0.59755,0.10865 v 3.98103 h -0.71395 v -1.56758 z m 0.62859,-1.93231 q -0.0854,-0.0155 -0.28713,-0.031 -0.19401,-0.0155 -0.4501,-0.0155 -0.44234,0 -0.71395,0.18625 -0.27161,0.17849 -0.27161,0.57426 0,0.38802 0.27937,0.53546 0.27937,0.14745 0.72171,0.14745 h 0.72171 z" style="font-style:normal;font-variant:normal;font-weight:normal;font-stretch:normal;font-size:7.7603px;line-height:1.25;font-family:Ubuntu;-inkscape-font-specification:Ubuntu;letter-spacing:0px;word-spacing:0px;fill:#475e73;fill-opacity:1;stroke:none;stroke-width:0.107039" id="path874" inkscape:connector-curvature="0"></path>
        <path d="m 171.7621,173.52023 h 0.54322 v 1.72278 h -0.6829 v -1.12524 h -3.08084 v -4.03536 h 0.72171 v 3.43782 h 1.7771 v -3.43782 h 0.72171 z" style="font-style:normal;font-variant:normal;font-weight:normal;font-stretch:normal;font-size:7.7603px;line-height:1.25;font-family:Ubuntu;-inkscape-font-specification:Ubuntu;letter-spacing:0px;word-spacing:0px;fill:#475e73;fill-opacity:1;stroke:none;stroke-width:0.107039" id="path876" inkscape:connector-curvature="0"></path>
        <path d="m 172.86405,172.10785 q 0,-0.53546 0.15521,-0.93123 0.1552,-0.40354 0.41129,-0.66739 0.25609,-0.26385 0.58979,-0.39577 0.33369,-0.13193 0.6829,-0.13193 0.81483,0 1.24941,0.51218 0.43458,0.50442 0.43458,1.5443 0,0.0466 0,0.12417 0,0.0698 -0.008,0.13192 h -2.76267 q 0.0466,0.62858 0.36474,0.95452 0.31817,0.32593 0.99331,0.32593 0.38026,0 0.63635,-0.0621 0.26385,-0.0699 0.39577,-0.13193 l 0.10089,0.60531 q -0.13193,0.0698 -0.46562,0.14744 -0.32593,0.0776 -0.74499,0.0776 -0.5277,0 -0.91571,-0.1552 -0.38026,-0.16297 -0.62859,-0.44234 -0.24833,-0.27937 -0.37249,-0.65962 -0.11641,-0.38802 -0.11641,-0.84588 z m 2.77043,-0.39577 q 0.008,-0.4889 -0.24833,-0.79931 -0.24833,-0.31818 -0.69067,-0.31818 -0.24833,0 -0.44233,0.10089 -0.18625,0.0931 -0.31818,0.24833 -0.13192,0.1552 -0.20952,0.35697 -0.0699,0.20177 -0.0931,0.4113 z" style="font-style:normal;font-variant:normal;font-weight:normal;font-stretch:normal;font-size:7.7603px;line-height:1.25;font-family:Ubuntu;-inkscape-font-specification:Ubuntu;letter-spacing:0px;word-spacing:0px;fill:#475e73;fill-opacity:1;stroke:none;stroke-width:0.107039" id="path878" inkscape:connector-curvature="0"></path>
        <path d="m 180.22856,172.10785 q 0,-0.70618 -0.34921,-1.08644 -0.34922,-0.38025 -0.93124,-0.38025 -0.32593,0 -0.51218,0.0233 -0.17849,0.0233 -0.28713,0.0543 v 2.54538 q 0.13192,0.10864 0.38025,0.20953 0.24833,0.10088 0.54322,0.10088 0.31042,0 0.5277,-0.10864 0.22505,-0.11641 0.36474,-0.31042 0.13968,-0.20176 0.20177,-0.46561 0.0621,-0.27162 0.0621,-0.58203 z m 0.75275,0 q 0,0.45786 -0.12417,0.84588 -0.1164,0.38801 -0.34921,0.66738 -0.23281,0.27937 -0.57426,0.43458 -0.3337,0.1552 -0.76827,0.1552 -0.34922,0 -0.62083,-0.0931 -0.26385,-0.0931 -0.39577,-0.17849 v 1.61415 h -0.72171 v -5.34685 q 0.25609,-0.0621 0.63635,-0.13193 0.38801,-0.0776 0.89243,-0.0776 0.46562,0 0.83811,0.14745 0.3725,0.14744 0.63635,0.41905 0.26385,0.27161 0.40353,0.66739 0.14745,0.38801 0.14745,0.87691 z" style="font-style:normal;font-variant:normal;font-weight:normal;font-stretch:normal;font-size:7.7603px;line-height:1.25;font-family:Ubuntu;-inkscape-font-specification:Ubuntu;letter-spacing:0px;word-spacing:0px;fill:#475e73;fill-opacity:1;stroke:none;stroke-width:0.107039" id="path880" inkscape:connector-curvature="0"></path>
        <path d="m 183.47236,171.92161 q 0.24057,0.17072 0.51994,0.43457 0.27937,0.25609 0.54322,0.55874 0.27161,0.30266 0.50442,0.62083 0.23281,0.31041 0.39577,0.58202 h -0.85363 q -0.17073,-0.26385 -0.40354,-0.53546 -0.22505,-0.27937 -0.47338,-0.53546 -0.24832,-0.25609 -0.50441,-0.47338 -0.25609,-0.21729 -0.48114,-0.36473 v 1.90903 h -0.72171 v -4.03536 h 0.72171 v 1.73055 q 0.18624,-0.17849 0.42681,-0.41129 0.24057,-0.24057 0.48114,-0.48114 0.24833,-0.24833 0.45786,-0.46562 0.20953,-0.22505 0.34145,-0.3725 h 0.83811 q -0.17072,0.18625 -0.40353,0.42682 -0.22505,0.23281 -0.47338,0.48114 -0.24057,0.24833 -0.48114,0.49666 -0.24057,0.24057 -0.43457,0.43458 z" style="font-style:normal;font-variant:normal;font-weight:normal;font-stretch:normal;font-size:7.7603px;line-height:1.25;font-family:Ubuntu;-inkscape-font-specification:Ubuntu;letter-spacing:0px;word-spacing:0px;fill:#475e73;fill-opacity:1;stroke:none;stroke-width:0.107039" id="path882" inkscape:connector-curvature="0"></path>
        <path d="m 189.50209,172.10009 q 0,0.48114 -0.13968,0.86916 -0.13969,0.38801 -0.39578,0.66738 -0.24833,0.27937 -0.59754,0.43458 -0.34922,0.14744 -0.76051,0.14744 -0.4113,0 -0.76051,-0.14744 -0.34921,-0.15521 -0.6053,-0.43458 -0.24833,-0.27937 -0.38802,-0.66738 -0.13968,-0.38802 -0.13968,-0.86916 0,-0.47338 0.13968,-0.86139 0.13969,-0.39578 0.38802,-0.67515 0.25609,-0.27937 0.6053,-0.42681 0.34921,-0.15521 0.76051,-0.15521 0.41129,0 0.76051,0.15521 0.34921,0.14744 0.59754,0.42681 0.25609,0.27937 0.39578,0.67515 0.13968,0.38801 0.13968,0.86139 z m -0.75275,0 q 0,-0.6829 -0.31041,-1.07868 -0.30265,-0.40353 -0.83035,-0.40353 -0.5277,0 -0.83811,0.40353 -0.30266,0.39578 -0.30266,1.07868 0,0.68291 0.30266,1.08644 0.31041,0.39578 0.83811,0.39578 0.5277,0 0.83035,-0.39578 0.31041,-0.40353 0.31041,-1.08644 z" style="font-style:normal;font-variant:normal;font-weight:normal;font-stretch:normal;font-size:7.7603px;line-height:1.25;font-family:Ubuntu;-inkscape-font-specification:Ubuntu;letter-spacing:0px;word-spacing:0px;fill:#475e73;fill-opacity:1;stroke:none;stroke-width:0.107039" id="path884" inkscape:connector-curvature="0"></path>
        <path d="m 191.22486,173.57455 q 0.0466,0.008 0.13193,0.0155 0.0854,0.008 0.194,0.0155 0.10865,0 0.22505,0.008 0.12417,0 0.23281,0 0.22505,0 0.42682,-0.031 0.20953,-0.031 0.35697,-0.10864 0.15521,-0.0776 0.24057,-0.20177 0.0931,-0.13193 0.0931,-0.3337 0,-0.194 -0.0854,-0.31817 -0.0776,-0.13192 -0.21729,-0.20953 -0.13968,-0.0776 -0.33369,-0.10864 -0.18625,-0.031 -0.40354,-0.031 h -0.86139 z m 0.76827,-1.83919 q 0.20953,0 0.38026,-0.0233 0.17848,-0.031 0.30265,-0.10089 0.13192,-0.0698 0.20176,-0.18624 0.0776,-0.11641 0.0776,-0.29489 0,-0.18625 -0.0931,-0.2949 -0.0931,-0.10864 -0.24833,-0.16296 -0.14744,-0.0621 -0.34145,-0.0776 -0.18625,-0.0233 -0.38025,-0.0233 -0.17849,0 -0.36474,0.008 -0.17848,0.008 -0.30265,0.0155 v 1.14077 z m -0.0155,2.45225 q -0.45786,0 -0.84587,-0.0466 -0.38802,-0.0388 -0.61307,-0.0931 v -3.92671 q 0.22505,-0.0543 0.61307,-0.0931 0.38801,-0.0466 0.84587,-0.0466 0.31817,0 0.62082,0.0543 0.30266,0.0543 0.53546,0.18625 0.23281,0.12417 0.3725,0.34921 0.14744,0.21729 0.14744,0.54322 0,0.2949 -0.14744,0.50442 -0.14745,0.20953 -0.39578,0.32594 0.3337,0.1164 0.5277,0.34921 0.20177,0.22505 0.20177,0.63634 0,0.36474 -0.14744,0.60531 -0.13969,0.24057 -0.39578,0.38801 -0.24833,0.14745 -0.58978,0.20177 -0.34145,0.0621 -0.72947,0.0621 z" style="font-style:normal;font-variant:normal;font-weight:normal;font-stretch:normal;font-size:7.7603px;line-height:1.25;font-family:Ubuntu;-inkscape-font-specification:Ubuntu;letter-spacing:0px;word-spacing:0px;fill:#475e73;fill-opacity:1;stroke:none;stroke-width:0.107039" id="path886" inkscape:connector-curvature="0"></path>
        <path d="m 196.30008,173.61335 q 0.45785,0 0.72171,-0.17849 0.26385,-0.17848 0.26385,-0.57426 0,-0.19401 -0.0776,-0.33369 -0.0776,-0.13969 -0.21729,-0.22505 -0.13192,-0.0931 -0.31041,-0.13192 -0.17848,-0.0466 -0.38025,-0.0466 -0.20953,0 -0.43458,0.0155 -0.21729,0.008 -0.37249,0.0466 v 1.38909 q 0.0466,0.008 0.13968,0.0155 0.0931,0.008 0.20177,0.0155 0.1164,0 0.23281,0.008 0.12416,0 0.23281,0 z m -1.52878,0.41906 v -3.95 h 0.72171 v 1.5443 q 0.0621,-0.0155 0.16296,-0.031 0.10865,-0.0155 0.22505,-0.031 0.12417,-0.0155 0.25609,-0.0233 0.13193,-0.008 0.24833,-0.008 0.33369,0 0.62858,0.0776 0.2949,0.0699 0.51218,0.23281 0.22505,0.15521 0.35698,0.4113 0.13192,0.24833 0.13192,0.59754 0,0.36474 -0.12416,0.62083 -0.12417,0.25609 -0.35698,0.41905 -0.2328,0.16297 -0.55874,0.23281 -0.31817,0.0776 -0.71394,0.0776 -0.38802,0 -0.76051,-0.0466 -0.3725,-0.0388 -0.72947,-0.12416 z" style="font-style:normal;font-variant:normal;font-weight:normal;font-stretch:normal;font-size:7.7603px;line-height:1.25;font-family:Ubuntu;-inkscape-font-specification:Ubuntu;letter-spacing:0px;word-spacing:0px;fill:#475e73;fill-opacity:1;stroke:none;stroke-width:0.107039" id="path888" inkscape:connector-curvature="0"></path>
      </g>
      <rect style="fill:#7b5d5b;fill-opacity:1;stroke:none;stroke-width:0.120939" id="rect874" width="8.1167488" height="0.20580192" x="37.34671" y="150.33401"></rect>
      <g id="g1094" transform="matrix(0.68126036,0,0,0.68126036,11.960916,17.838488)">
        <path inkscape:export-filename="/home/leo/logo.png" inkscape:export-ydpi="32.234673" inkscape:export-xdpi="32.234673" style="fill:#f1d9a8;fill-opacity:1;stroke:none;stroke-width:0.13017" d="m 43.12648,165.88307 -6.866541,3.66754 -1.166404,1.86201 -1.598711,0.74778 0.03447,1.09953 -4.699807,0.0359 0.0013,18.25185 4.718896,0.11366 0.04049,1.65901 8.051845,-0.008 0.08465,-12.33422 -5.097488,-0.0117 0.0117,-2.58316 5.097488,-0.0234 v -4.3398 l 2.828918,-0.0351 0.0234,4.35149 5.068396,0.0234 v 2.61834 l -5.045011,0.0234 0.02148,12.41302 8.198023,-0.10304 0.07234,-1.62797 4.622371,-0.13732 v -18.25363 h -4.651383 l -0.0038,-1.13097 -1.398391,-0.59114 -1.413558,-2.17196 z" id="path4558-6" inkscape:connector-curvature="0" sodipodi:nodetypes="cccccccccccccccccccccccccccccc"></path>
        <path sodipodi:nodetypes="ccccccccccccccccccccccccccccccccccccccccccccccccccccccccccccccccccccccccccccccccccccccccccccccccccccccccc" inkscape:connector-curvature="0" id="path10-0" d="m 41.62232,193.2108 -3.147894,0.0134 -4.735394,0.0134 -0.01837,-1.72883 -4.736967,0.0176 0.07805,-16.86757 2.049695,-1.09316 2.196061,1.09316 0.203847,15.12291 0.302376,-16.10976 0.02254,-1.35164 6.528927,-2.83664 0.06723,-1.10753 2.598833,-1.36629 2.773055,1.33804 0.0077,1.2101 6.69783,2.76754 0.0097,0.86145 h -0.008 l 0.302376,16.58439 0.212511,-15.11454 2.189759,-1.08991 2.049696,1.09316 0.03908,16.82859 -4.626373,0.0176 0.002,1.67757 -4.735396,0.0134 -3.270671,0.0134 -0.0064,0.30398 3.461077,-1.1e-4 4.9258,-9e-5 -5.64e-4,-1.69276 4.717697,0.006 v -18.64401 h -0.705149 l -1.651548,-4.24536 v -2.09438 h 0.683593 v -0.27394 h -0.683593 v -0.72424 h -0.399426 v 0.72444 h -0.722179 v 0.27383 h 0.722179 v 2.10039 h 0.0071 l -1.661194,4.23867 -0.340863,10e-4 -0.0038,-1.04148 -1.38441,-0.68064 -1.43963,-2.0743 -7.130525,-3.77724 -7.13604,3.87901 -1.138632,1.95963 -1.469946,0.73153 0.002,1.00191 h -0.357654 l -1.65145,-4.24536 v -2.09397 h 0.683494 v -0.27393 h -0.683494 v -0.72425 h -0.399427 v 0.72445 h -0.722275 v 0.27392 h 0.722275 v 2.10029 h 0.007 l -1.661195,4.23867 -0.704164,0.004 0.0014,18.64235 4.794505,-2.5e-4 0.0028,1.68666 4.9258,-1.2e-4 3.3383,-8e-5 z m -0.08109,0.30328 0.302375,-0.003 v -12.6495 h -5.109179 v -2.39607 h 5.109179 v -4.36318 h 2.630136 v 4.36318 h 5.106455 v 2.39617 h -5.106455 v 12.6531 h 0.302375 v -12.35033 h 5.106456 v -3.00132 h -5.106456 v -4.36318 H 41.54123 v 4.36318 h -5.10918 v 3.00082 h 5.10918 z" style="fill:#7b5d5b;fill-opacity:1;stroke-width:0.13017"></path>
      </g>
    </g>
  </g>
</svg>
