<?xml version="1.0" encoding="UTF-8" standalone="no"?>
<svg xmlns:inkscape="http://www.inkscape.org/namespaces/inkscape" xmlns:sodipodi="http://sodipodi.sourceforge.net/DTD/sodipodi-0.dtd" xmlns="http://www.w3.org/2000/svg" xmlns:svg="http://www.w3.org/2000/svg" xmlns:rdf="http://www.w3.org/1999/02/22-rdf-syntax-ns#" xmlns:cc="http://creativecommons.org/ns#" xmlns:dc="http://purl.org/dc/elements/1.1/" version="1.1" id="svg2" width="170" height="61.245777" viewBox="0 0 169.99999 61.245778" sodipodi:docname="samaryanin.svg" inkscape:version="1.1.2 (0a00cf5339, 2022-02-04)" inkscape:export-filename="/home/leo/MEGA/Храм/127-0-0-1-6/Лого SVG январь 2022/Самарянин/21.png" inkscape:export-xdpi="96" inkscape:export-ydpi="96">
  <metadata id="metadata8"></metadata>
  <defs id="defs6"></defs>
  <g id="g56532" transform="scale(0.93767152)">
    <rect style="fill:#f0f0f0;fill-opacity:1;stroke:#d0d0d0;stroke-width:0.98614;stroke-linejoin:bevel;stroke-miterlimit:4;stroke-dasharray:none;stroke-opacity:1" id="rect888" width="172.5" height="64.329681" x="8.3070946" y="0.49335945" ry="8.4899235"></rect>
    <path id="path1574" style="fill:#667787;fill-opacity:1;stroke:none;stroke-width:0.419199;stroke-miterlimit:4;stroke-dasharray:none;stroke-opacity:1" d="M 5.8979134,0 C 2.1825905,0 0,2.2244346 0,5.8708932 V 59.394945 c 0,3.710128 2.1829585,5.921932 5.9069202,5.921932 H 40.654067 L 40.631548,0 Z M 50.030084,8.6074413 c -0.139985,0.00555 -0.28861,0.019398 -0.460845,0.042031 -2.574954,0.3389465 -4.082198,3.1279797 -2.969222,5.4956127 0.359327,0.764398 0.973481,1.40422 1.717285,1.79084 0.290497,0.151032 1.116419,0.393253 1.433573,0.420315 0.713536,0.06087 1.392215,-0.0663 2.053537,-0.384288 0.629862,-0.302838 1.07681,-0.686213 1.513132,-1.301474 0.198703,-0.280193 0.237725,-0.365682 0.430822,-0.9367 0.253538,-0.750343 0.2894,-1.076735 0.196647,-1.77583 C 53.830528,11.095269 53.461552,10.354338 52.843189,9.7452925 52.344142,9.2537461 52.056773,9.0819346 51.327054,8.8386114 50.779161,8.6559959 50.450037,8.5908452 50.030084,8.607439 Z m 9.430057,3.8278707 c -1.13676,-0.04591 -2.731959,0.139335 -3.272449,0.379784 -0.927584,0.376575 -1.417727,1.152007 -2.034023,1.849384 -1.991023,1.985887 -2.653706,2.698861 -3.203397,3.446579 -1.939753,2.638534 -3.622963,4.565838 -6.406794,6.217652 -0.664028,0.394009 -0.722694,0.441387 -0.903676,0.702526 -0.399683,0.576644 -0.291199,1.396392 0.241681,1.828369 0.250604,0.203158 0.66402,0.339367 0.995244,0.328745 0.293216,-0.0094 0.608588,-0.158769 1.493618,-0.713033 2.326585,-1.482827 4.807339,-4.120792 7.26994,-6.556906 1.895666,0.979774 3.08284,2.710213 4.42381,4.98523 -2.543725,0.598943 -4.633733,1.289026 -6.133589,3.746804 -0.262076,0.469517 -0.546617,1.433673 -0.589942,2.000996 -0.09929,1.299941 0.207905,2.624263 0.965223,4.152108 0.380468,0.767605 0.702083,1.306139 1.281959,2.146606 0.427104,0.619015 0.637107,0.845993 0.968224,1.043281 0.287531,0.171199 0.536013,0.254177 0.88116,0.29422 1.110908,0.128681 2.114908,-0.604397 2.337248,-1.706778 0.130624,-0.647683 0.0059,-1.186875 -0.420314,-1.793842 -0.987387,-1.406588 -1.567741,-2.568824 -1.678255,-3.36852 0.04955,-1.803724 1.915233,-2.410141 3.739297,-2.709527 0.284725,1.14264 0.458022,2.043924 0.980234,3.110327 1.135763,2.280702 3.393945,4.308435 6.846624,6.148601 0.809114,0.430877 1.125566,0.554585 1.489114,0.579434 1.402384,0.09601 2.491587,-1.120638 2.278705,-2.542903 -0.06331,-0.423003 -0.364992,-0.954419 -0.698023,-1.22942 -0.100353,-0.08288 -0.498072,-0.321072 -0.885661,-0.528396 -1.574036,-0.841956 -2.722607,-1.615936 -3.656737,-2.467846 -1.575337,-1.436675 -1.984032,-2.579264 -2.008503,-4.072548 1.21635,-1.289152 1.747421,-2.850868 0.962219,-4.961213 -1.049549,-3.085081 -2.173551,-4.98111 -3.541149,-6.858632 -0.183502,-0.251869 -0.332871,-0.47236 -0.33325,-0.490867 -0.0021,-0.0901 1.368135,0.339007 1.975479,0.618463 1.65126,0.759795 3.236147,2.143997 4.458336,3.893913 0.319923,0.458095 0.531273,0.626495 0.921689,0.73405 0.525444,0.144742 0.975072,0.03501 1.346508,-0.331749 0.166321,-0.164231 0.196033,-0.221995 0.304728,-0.546408 0.106594,-0.317948 0.117934,-0.39174 0.08857,-0.610958 -0.04016,-0.299327 -0.180474,-0.569394 -0.585439,-1.12284 -0.846661,-1.157116 -1.926627,-2.26762 -3.009752,-3.095315 -2.013765,-1.538803 -4.382706,-2.39815 -6.888654,-2.499371 z m -33.991437,7.658723 c -0.177542,0 0.356039,0.01552 0.535902,0.04203 0.381799,0.05634 1.260188,0.388588 1.559667,0.588441 1.181858,0.788727 1.841539,2.111375 1.750309,3.506624 -0.03259,0.498667 -0.256781,1.235213 -0.510381,1.67075 -0.764211,1.31251 -2.142125,2.047761 -3.626715,1.936449 -0.441216,-0.03303 -1.046992,-0.188347 -1.405051,-0.36027 -0.535183,-0.256981 -1.0727,-0.691413 -1.418562,-1.145356 -1.035734,-1.359387 -1.04947,-3.256546 -0.03302,-4.654985 0.74339,-1.022595 1.905143,-1.598057 3.147855,-1.583685 z m 11.857374,6.807599 c 0.441388,-0.01512 0.780981,0.142478 1.071801,0.580934 0.484354,0.758738 0.473024,1.757684 -2.076053,2.559416 -2.111754,0.805521 -4.574697,1.315092 -7.007244,1.450084 -0.265846,0.01475 -2.381544,0.230609 -2.415308,0.286715 -0.134662,0.22361 -0.218528,0.219006 -0.421815,0.663497 -0.702921,1.537165 -0.708657,2.698378 -0.716035,4.45083 0.05156,0.365788 0.165663,2.804687 0.186139,2.811604 0.0048,0.0015 1.972316,-1.501 2.15261,-1.621213 0.662406,-0.441116 1.565312,-0.829854 2.274203,-0.980233 1.530888,-0.324791 3.064826,0.07684 4.287208,1.119838 1.201191,1.02491 2.133241,2.712249 2.804098,5.073796 0.2272,0.799803 0.241672,1.163821 0.06905,1.675254 -0.42761,1.266796 -1.879923,1.83807 -3.065293,1.205402 -0.335721,-0.179178 -0.724753,-0.564214 -0.887163,-0.881159 -0.06752,-0.131888 -0.185132,-0.472514 -0.264199,-0.755065 -0.414189,-1.480353 -1.030848,-2.713808 -1.549159,-3.102822 -0.156298,-0.11723 -0.184667,-0.127007 -0.352764,-0.12009 -0.541062,0.02256 -1.560853,0.731196 -2.349258,1.63172 -0.53213,0.607397 -0.711725,0.775592 -0.983235,0.926194 l -0.268702,0.151613 0.378284,0.481861 c 2.126508,2.705915 3.078957,6.044854 2.840125,9.959954 -0.07168,1.174628 -0.343628,2.977826 -0.5344,3.548655 -0.307105,0.918531 -1.199405,1.512032 -2.181132,1.450085 -0.285978,-0.01807 -0.815074,-0.197368 -1.058292,-0.358769 h -0.0016 c -0.4197,-0.278524 -0.752728,-0.743589 -0.873654,-1.215909 -0.103096,-0.402765 -0.09832,-0.6487 0.03002,-1.329996 0.591191,-3.137785 0.395028,-5.610512 -0.615461,-7.747297 -0.579329,-1.225063 -1.487381,-2.345249 -2.529392,-3.119335 -0.991452,-0.5682 -1.679962,-1.0482 -2.248683,-1.955963 -0.559784,-0.915196 -0.99717,-3.348067 -1.385537,-5.091811 -0.578607,-2.597776 -0.840139,-4.951318 -0.774579,-6.953203 0.0083,-0.253423 0.01255,-0.476735 0.009,-0.496871 -0.01286,-0.06548 -0.534517,0.313791 -0.792593,0.57493 -0.481362,0.487238 -0.723921,0.887853 -0.954715,1.57768 -0.174767,0.522339 -0.257848,0.961923 -0.292718,1.564171 -0.06491,1.121789 0.162155,2.723163 0.595945,4.189635 0.230598,0.779526 0.232299,0.796665 0.07655,1.262445 -0.116195,0.347458 -0.155105,0.419457 -0.291218,0.556916 -0.536655,0.541938 -1.419294,0.537504 -1.981483,-0.01201 -0.218752,-0.213861 -0.313782,-0.450533 -0.5689,-1.400546 -0.498297,-1.855885 -0.683007,-3.386707 -0.585438,-4.841122 0.0616,-0.917693 0.12691,-1.253499 0.436827,-2.185636 0.241293,-0.725996 0.311014,-0.892413 0.510382,-1.238426 1.003358,-1.741369 2.579372,-2.869337 4.707522,-3.371524 0.426015,-0.100537 1.355356,-0.22978 1.63022,-0.225168 0.0811,0.0015 1.573656,0.250974 3.317482,0.553915 3.455383,0.600273 3.301259,0.582705 4.558912,0.510381 4.532727,-0.176019 6.765388,-1.768088 8.089553,-1.813356 z" sodipodi:nodetypes="ssssccsccscccsccccsccccccccccccsccccccssssccccscssccccsscssccccsscccccscccscccccccccccccccsccccccccccccccccccscccscsscccssscc"></path>
    <g aria-label="ДОБРЫЙ САМАРЯНИН" id="text1906" style="font-size:24px;line-height:1.25;text-align:end;text-anchor:end;fill:#667787">
      <path id="path55741" style="font-size:26.6667px;font-family:'Ubuntu Condensed';-inkscape-font-specification:'Ubuntu Condensed, '" d="M 156.39132,30.246068 V 11.766046 h 2.24 v 13.253349 q 1.38667,-3.226671 3.04001,-6.426675 1.65333,-3.226671 3.84,-6.826674 h 1.89334 v 18.480022 h -2.24001 V 16.08605 q -0.90666,1.573335 -1.84,3.413338 -0.93333,1.813335 -1.84,3.680004 -0.88,1.840003 -1.70667,3.680005 -0.8,1.813336 -1.44,3.386671 z m 5.70667,-21.9200242 q 0.72,0 1.12,-0.4533339 0.4,-0.4533339 0.56,-1.4666685 l 1.68001,0.3733338 q -0.26667,1.7333355 -1.17334,2.4800031 -0.90667,0.7466677 -2.18667,0.7466677 -1.28,0 -2.18667,-0.7466677 -0.90666,-0.7466676 -1.17333,-2.4800031 l 1.68,-0.3733338 q 0.16,1.0133346 0.56,1.4666685 0.4,0.4533339 1.12,0.4533339 z M 138.7913,11.766046 v 6.853341 h 1.14667 q 1.44,0 2.61333,0.32 1.17334,0.32 2.00001,1.040001 0.85333,0.693334 1.30666,1.840003 0.48,1.120001 0.48,2.720003 0,1.573335 -0.45333,2.693337 -0.45333,1.120001 -1.28,1.840002 -0.8,0.693334 -1.97334,1.040001 -1.14666,0.320001 -2.53333,0.320001 -1.81334,0 -3.70667,-0.453334 V 11.766046 Z m 0,16.480019 q 0.58667,0.08 1.30667,0.08 0.82666,0 1.49333,-0.186666 0.69334,-0.186667 1.17334,-0.613335 0.50666,-0.453333 0.77333,-1.173334 0.26667,-0.720001 0.26667,-1.813336 0,-1.066668 -0.29334,-1.786669 -0.26666,-0.720001 -0.8,-1.173335 -0.50666,-0.453334 -1.25333,-0.640001 -0.74667,-0.213333 -1.68,-0.213333 h -0.98667 z m 10.72001,-16.480019 h 2.40001 v 18.480022 h -2.40001 z m -26.05338,0.266667 q 1.86667,-0.453334 3.65334,-0.453334 1.38667,0 2.50667,0.346667 1.14667,0.32 1.94667,1.04 0.82667,0.693334 1.25333,1.813336 0.45334,1.120001 0.45334,2.693336 0,1.600002 -0.45334,2.746671 -0.45333,1.120001 -1.28,1.840002 -0.82667,0.693334 -2,1.013335 -1.14667,0.32 -2.56,0.32 h -1.12001 v 6.853342 h -2.4 z m 2.4,9.253344 h 0.96 q 0.90667,0 1.62667,-0.186667 0.74667,-0.213334 1.25334,-0.666668 0.50667,-0.453334 0.77333,-1.173335 0.26667,-0.720001 0.26667,-1.786669 0,-1.066668 -0.26667,-1.786668 -0.26666,-0.746668 -0.74666,-1.173335 -0.45334,-0.453334 -1.12001,-0.640001 -0.66666,-0.186667 -1.46666,-0.186667 -0.69334,0 -1.28001,0.08 z m -15.76,-9.520011 h 8.29334 v 2.053334 h -5.89334 v 4.800007 h 1.14667 q 1.44,0 2.61333,0.32 1.17334,0.32 2.00001,1.040001 0.85333,0.693334 1.30666,1.840003 0.48001,1.120001 0.48001,2.720003 0,1.573335 -0.45334,2.693337 -0.45333,1.120001 -1.28,1.840002 -0.82667,0.693334 -1.97334,1.040001 -1.14666,0.320001 -2.53333,0.320001 -1.84,0 -3.70667,-0.453334 z m 2.4,16.480019 q 0.64,0.08 1.33333,0.08 0.82667,0 1.49334,-0.186666 0.69333,-0.186667 1.17333,-0.613335 0.48,-0.453333 0.74667,-1.173334 0.26667,-0.720001 0.26667,-1.813336 0,-2.106669 -1.06667,-2.960004 -1.06667,-0.853334 -2.96,-0.853334 h -0.98667 z M 106.3646,21.01939 q 0,2.160002 -0.4,3.946671 -0.37333,1.760002 -1.2,3.040004 -0.8,1.253335 -2.05334,1.946669 -1.22667,0.693334 -2.906667,0.693334 -1.680002,0 -2.933337,-0.693334 -1.226668,-0.693334 -2.053336,-1.946669 -0.800001,-1.280002 -1.200002,-3.040004 -0.4,-1.786669 -0.4,-3.946671 0,-2.160003 0.4,-3.946672 0.400001,-1.786669 1.200002,-3.040004 0.826668,-1.280001 2.053336,-1.973335 1.253335,-0.72 2.933337,-0.72 1.679997,0 2.906667,0.72 1.25334,0.693334 2.05334,1.973335 0.82667,1.253335 1.2,3.040004 0.4,1.786669 0.4,3.946672 z m -2.56,0 q 0,-1.680003 -0.21334,-3.066671 -0.21333,-1.386668 -0.69333,-2.373336 -0.48,-1.013335 -1.25333,-1.573336 -0.74667,-0.56 -1.840007,-0.56 -1.093335,0 -1.866669,0.56 -0.746668,0.560001 -1.226668,1.573336 -0.480001,0.986668 -0.720001,2.373336 -0.213334,1.386668 -0.213334,3.066671 0,1.680002 0.213334,3.06667 0.24,1.386669 0.720001,2.373336 0.48,0.986668 1.226668,1.546669 0.773334,0.533334 1.866669,0.533334 1.093337,0 1.840007,-0.533334 0.77333,-0.560001 1.25333,-1.546669 0.48,-0.986667 0.69333,-2.373336 0.21334,-1.386668 0.21334,-3.06667 z M 88.897935,35.179407 v -4.933339 h -9.973346 v 4.933339 h -2.293336 v -6.960008 h 1.626668 q 0.826668,-1.333335 1.333335,-2.933337 0.533334,-1.600002 0.826668,-3.466671 0.293334,-1.866669 0.373334,-4.000005 0.106667,-2.160003 0.106667,-4.640006 v -1.413334 h 8.533344 v 16.453353 h 1.760002 v 6.960008 z M 83.297928,13.81938 q 0,4.320006 -0.480001,7.946677 -0.453334,3.600005 -1.866669,6.453342 h 6.080008 V 13.81938 Z"></path>
      <path id="path55759" style="font-family:'Ubuntu Condensed';-inkscape-font-specification:'Ubuntu Condensed, '" d="m 165.46865,41.424598 h 2.16 v 16.632 h -2.16 v -7.728 h -5.472 v 7.728 h -2.16 v -16.632 h 2.16 v 7.032 h 5.472 z m -21.57599,16.632 v -16.632 h 2.016 v 11.928 q 1.248,-2.904 2.736,-5.784 1.488,-2.904 3.456,-6.144 h 1.704 v 16.632 h -2.016 v -12.744 q -0.816,1.416 -1.656,3.072 -0.84,1.632 -1.656,3.312 -0.792,1.656 -1.536,3.312 -0.72,1.632 -1.296,3.048 z m -6.192,-16.632 h 2.16 v 16.632 h -2.16 v -7.728 h -5.472 v 7.728 h -2.16 v -16.632 h 2.16 v 7.032 h 5.472 z m -11.664,16.632 h -2.112 v -6.48 h -0.6 q -0.408,0 -0.816,-0.024 -0.408,-0.024 -0.792,-0.072 -0.336,0.576 -0.768,1.416 -0.432,0.84 -0.864,1.752 -0.432,0.888 -0.84,1.8 -0.384,0.888 -0.648,1.608 h -2.16 q 0.288,-0.936 0.72,-1.968 0.456,-1.056 0.912,-2.016 0.48,-0.984 0.912,-1.8 0.432,-0.84 0.72,-1.344 -1.104,-0.552 -1.752,-1.608 -0.648,-1.08 -0.648,-2.88 0,-1.296 0.384,-2.256 0.408,-0.984 1.128,-1.632 0.72,-0.648 1.728,-0.96 1.008,-0.336 2.256,-0.336 1.56,0 3.24,0.408 z m -2.112,-14.832 q -0.552,-0.072 -1.152,-0.072 -0.72,0 -1.32,0.168 -0.576,0.168 -1.008,0.552 -0.408,0.36 -0.648,1.008 -0.216,0.624 -0.216,1.56 0,1.848 0.888,2.616 0.888,0.744 2.544,0.744 h 0.912 z m -17.83202,-1.56 q 1.68,-0.408 3.288,-0.408 1.248,0 2.256,0.312 1.032,0.288 1.752,0.936 0.744,0.624 1.128,1.632 0.408,1.008 0.408,2.424 0,1.44 -0.408,2.472 -0.408,1.008 -1.152,1.656 -0.744,0.624 -1.8,0.912 -1.032,0.288 -2.304,0.288 h -1.008 v 6.168 h -2.16 z m 2.16,8.328 h 0.864 q 0.816,0 1.464,-0.168 0.672,-0.192 1.128,-0.6 0.456,-0.408 0.696,-1.056 0.24,-0.648 0.24,-1.608 0,-0.96 -0.24,-1.608 -0.24,-0.672 -0.672,-1.056 -0.408,-0.408 -1.008,-0.576 -0.6,-0.168 -1.32,-0.168 -0.624,0 -1.152,0.072 z m -9.072001,-8.568 q 0.576,1.8 1.128001,3.648 0.576,1.824 1.104,3.84 0.552,2.016 1.08,4.272 0.552,2.256 1.104,4.872 h -2.16 q -0.192,-1.08 -0.408,-2.136 -0.192,-1.056 -0.408,-2.112 h -5.232001 q -0.24,1.056 -0.432,2.112 -0.192,1.056 -0.384,2.136 h -2.088 q 0.528,-2.616 1.08,-4.872 0.552,-2.256 1.08,-4.272 0.552,-2.016 1.104,-3.84 0.576,-1.848 1.152,-3.648 z m -1.176,2.448 q -0.6,1.992 -1.152,4.008 -0.552,2.016 -1.056,4.128 h 4.392001 q -0.480001,-2.112 -1.032001,-4.128 -0.552,-2.016 -1.152,-4.008 z m -15.623996,11.88 q -0.48,-1.728 -0.984,-3.312 -0.504,-1.584 -0.984,-2.976 -0.456,-1.416 -0.888,-2.568 -0.432,-1.152 -0.792,-2.016 -0.096,1.368 -0.168,3.024 -0.048,1.632 -0.12,3.36 -0.048,1.728 -0.096,3.48 -0.024,1.728 -0.048,3.312 h -2.064 q 0.072,-2.16 0.144,-4.344 0.072,-2.208 0.168,-4.32 0.12,-2.136 0.24,-4.152 0.144,-2.016 0.312,-3.816 h 2.136 q 0.432,1.032 0.984,2.472 0.552,1.416 1.104,2.976 0.576,1.56 1.104,3.12 0.528,1.56 0.912,2.856 0.384,-1.296 0.888,-2.856 0.504,-1.56 1.056,-3.12 0.552,-1.56 1.08,-2.976 0.552,-1.44 0.984,-2.472 h 2.136 q 0.168,1.8 0.288,3.816 0.144,2.016 0.24,4.152 0.12,2.112 0.192,4.32 0.072,2.184 0.144,4.344 h -2.064 q -0.048,-1.584 -0.096,-3.336 -0.024,-1.752 -0.096,-3.504 -0.048,-1.776 -0.12,-3.432 -0.072,-1.68 -0.168,-3.072 -0.216,0.6 -0.552,1.512 -0.312,0.888 -0.672,1.944 -0.336,1.056 -0.72,2.184 -0.36,1.104 -0.696,2.136 -0.312,1.032 -0.576,1.896 -0.24,0.84 -0.384,1.368 z m -12.696007,-14.328 q 0.576,1.8 1.128,3.648 0.576,1.824 1.104,3.84 0.552,2.016 1.08,4.272 0.552,2.256 1.104,4.872 h -2.16 q -0.192,-1.08 -0.408,-2.136 -0.192,-1.056 -0.408,-2.112 h -5.232 q -0.24,1.056 -0.432,2.112 -0.192,1.056 -0.384,2.136 h -2.088 q 0.528,-2.616 1.08,-4.872 0.552,-2.256 1.08,-4.272 0.552,-2.016 1.104,-3.84 0.576,-1.848 1.152,-3.648 z m -1.176,2.448 q -0.6,1.992 -1.152,4.008 -0.552,2.016 -1.056,4.128 h 4.392 q -0.48,-2.112 -1.032,-4.128 -0.552,-2.016 -1.152,-4.008 z m -10.608013,14.544 q -2.928,0 -4.488,-2.184 -1.56,-2.184 -1.56,-6.744 0,-2.328 0.432,-3.936 0.456,-1.608 1.248,-2.616 0.792,-1.008 1.872,-1.44 1.08,-0.456 2.352,-0.456 1.056,0 1.968,0.288 0.912,0.264 1.488,0.672 l -0.648,1.8 q -0.576,-0.384 -1.248,-0.624 -0.648,-0.24 -1.512,-0.24 -1.92,0 -2.784,1.608 -0.864,1.584 -0.864,4.944 0,3.384 0.912,5.208 0.912,1.824 2.976,1.824 0.984,0 1.584,-0.24 0.624,-0.24 1.2,-0.624 l 0.6,1.704 q -0.552,0.432 -1.464,0.744 -0.888,0.312 -2.064,0.312 z"></path>
    </g>
  </g>
</svg>
