<?xml version="1.0" encoding="UTF-8" standalone="no"?>
<!-- Created with Inkscape (http://www.inkscape.org/) -->
<svg xmlns:inkscape="http://www.inkscape.org/namespaces/inkscape" xmlns:sodipodi="http://sodipodi.sourceforge.net/DTD/sodipodi-0.dtd" xmlns="http://www.w3.org/2000/svg" xmlns:svg="http://www.w3.org/2000/svg" xmlns:rdf="http://www.w3.org/1999/02/22-rdf-syntax-ns#" xmlns:cc="http://creativecommons.org/ns#" xmlns:dc="http://purl.org/dc/elements/1.1/" version="1.1" id="svg2" width="170" height="37.226433" viewBox="0 0 170 37.226433" sodipodi:docname="youtube-170.svg" inkscape:version="1.1.2 (0a00cf5339, 2022-02-04)" inkscape:export-filename="/home/leo/MEGA/Храм/127-0-0-1-6/Лого SVG январь 2022/youtube_5.png" inkscape:export-xdpi="96.096703" inkscape:export-ydpi="96.096703">
  <metadata id="metadata8"></metadata>
  <defs id="defs6"></defs>
  <g id="g2418" transform="matrix(0.99636668,0,0,0.99636668,0,-1.8111844e-4)">
    <path sodipodi:nodetypes="cccccccccscccc" inkscape:connector-curvature="0" id="path870" d="M 43.766305,0.6101868 V 36.752175 H 146.76566 v -0.04821 c 5.71309,-0.03716 8.77399,-0.119893 12.00716,-0.334276 5.35659,-0.355176 6.7756,-0.752624 8.41761,-2.362431 0.99348,-0.973997 1.43268,-1.723587 1.77319,-3.022949 1.3949,-5.322792 1.39521,-19.43843 0,-24.5596454 -0.37303,-1.3692064 -0.77474,-2.0428249 -1.81967,-3.0502691 -0.99908,-0.9632005 -1.76331,-1.3905703 -3.0599,-1.7115576 -2.53288,-0.627053 -9.64825,-0.95079937 -17.31839,-1.02854365 V 0.6101868 h -1.70012 z" style="fill:#f0f0f0;fill-opacity:1;stroke:#d0d0d0;stroke-width:1.22001;stroke-miterlimit:4;stroke-dasharray:none;stroke-opacity:1"></path>
    <path id="rect1234" style="fill:#667787;fill-opacity:1;stroke:none;stroke-width:0.91;stroke-linejoin:bevel;stroke-opacity:1" d="m 97.10046,6.586608 v 2.666015 c -1.42107,0.0222 -2.79859,0.24218 -4.13086,0.664063 -1.31005,0.421883 -2.47664,1.043672 -3.49804,1.865234 -0.99919,0.799356 -1.80796,1.788013 -2.42969,2.964844 -0.59952,1.176831 -0.90039,2.530399 -0.90039,4.0625 0,1.532102 0.30087,2.898621 0.90039,4.097656 0.62173,1.176831 1.4305,2.176485 2.42969,2.998047 1.0214,0.799358 2.18799,1.408196 3.49804,1.830078 1.33226,0.421883 2.70979,0.632813 4.13086,0.632813 v 2.798828 h 3.13086 v -2.798828 c 1.42107,-10e-7 2.78565,-0.21093 4.09571,-0.632813 1.31006,-0.421882 2.47664,-1.03072 3.49804,-1.830078 1.0214,-0.821562 1.83017,-1.821216 2.42969,-2.998047 0.62173,-1.199035 0.9336,-2.565554 0.9336,-4.097656 -1e-5,-1.532101 -0.31187,-2.885669 -0.9336,-4.0625 -0.59952,-1.176831 -1.40829,-2.165488 -2.42969,-2.964844 -1.0214,-0.821562 -2.18798,-1.443351 -3.49804,-1.865234 -1.31006,-0.421882 -2.67464,-0.641853 -4.09571,-0.664063 V 6.586608 Z M 71.487185,7.551451 c -0.932582,0 -1.798299,0.05695 -2.597656,0.167969 -0.777153,0.111022 -1.464935,0.254007 -2.064453,0.431641 -0.599518,0.155431 -1.100322,0.322364 -1.5,0.5 -0.377474,0.177634 -0.643398,0.322573 -0.798828,0.433594 l 0.832031,2.564453 c 0.488496,-0.244247 1.200229,-0.510171 2.132812,-0.798829 0.954788,-0.310861 2.163418,-0.466796 3.628907,-0.466796 1.176833,0 2.220483,0.188932 3.130859,0.566406 0.910382,0.35527 1.688106,0.865119 2.332031,1.53125 0.643925,0.666131 1.142773,1.465853 1.498047,2.398437 0.377473,0.932583 0.623358,1.976233 0.734375,3.13086 H 68.688357 v 2.732422 h 10.193359 c -0.08882,1.22124 -0.321744,2.330881 -0.699218,3.330078 -0.355268,0.976992 -0.867068,1.820711 -1.533204,2.53125 -0.643925,0.71054 -1.432652,1.264383 -2.365234,1.664062 -0.910382,0.377474 -1.96503,0.566407 -3.164062,0.566407 -1.465489,0 -2.685119,-0.155936 -3.66211,-0.466797 -0.954789,-0.310861 -1.67752,-0.587784 -2.166015,-0.832032 l -0.832032,2.666016 c 0.155431,0.111022 0.432354,0.254006 0.832032,0.431641 0.399678,0.155429 0.900481,0.311366 1.5,0.466796 0.621722,0.155431 1.331501,0.287416 2.130859,0.398438 0.799357,0.111021 1.665073,0.167969 2.597656,0.167969 1.620918,0 3.086423,-0.267877 4.396485,-0.800781 1.33226,-0.555109 2.476853,-1.341882 3.43164,-2.363282 0.954787,-1.043606 1.686567,-2.311136 2.197267,-3.798828 0.5329,-1.509897 0.80078,-3.206379 0.80078,-5.09375 0,-1.909575 -0.26788,-3.60801 -0.80078,-5.095703 C 81.03508,13.02665 80.3033,11.770118 79.348513,10.748717 78.393726,9.705112 77.249133,8.918341 75.916873,8.385436 74.584605,7.830327 73.108102,7.551451 71.487185,7.551451 Z m 74.806635,0.300782 c -0.93258,0 -1.96523,0.04399 -3.09765,0.132812 -1.11023,0.06661 -2.12088,0.211551 -3.03125,0.433594 v 22.748047 h 3.23047 v -8.560547 h 2.56445 c 1.62092,0 3.07542,-0.133939 4.36328,-0.400391 1.28786,-0.266453 2.37746,-0.686358 3.26563,-1.263672 0.91038,-0.599517 1.59816,-1.366245 2.06445,-2.298828 0.48849,-0.954787 0.73242,-2.097425 0.73242,-3.429687 0,-2.44248 -0.87672,-4.274854 -2.63086,-5.496094 -1.73194,-1.243444 -4.2191,-1.865234 -7.46094,-1.865234 z m -30.37695,0.232422 v 23.082031 h 2.69922 c 0.4885,-0.821562 1.0443,-1.744224 1.66601,-2.765625 0.64394,-1.0214 1.33173,-2.076049 2.06446,-3.164063 0.73276,-1.110218 1.48652,-2.230857 2.26367,-3.363281 0.79935,-1.132422 1.58808,-2.220067 2.36523,-3.263672 0.77716,-1.065809 1.53288,-2.065464 2.26563,-2.998047 0.73274,-0.932583 1.40953,-1.754304 2.03125,-2.464843 v 18.019531 h 3.16406 V 8.084655 h -2.56445 c -1.0436,1.110217 -2.16621,2.410745 -3.36524,3.898437 -1.17683,1.465488 -2.35246,2.98599 -3.52929,4.5625 -1.15463,1.554306 -2.25523,3.085807 -3.29883,4.595703 -1.02141,1.509897 -1.88713,2.852465 -2.59766,4.029297 V 8.084655 Z m 30.64258,2.597656 c 0.86597,0 1.68769,0.06795 2.46484,0.201172 0.77715,0.133227 1.4559,0.377151 2.03321,0.732422 0.59952,0.333065 1.06341,0.78792 1.39648,1.365234 0.35527,0.577313 0.5332,1.311044 0.5332,2.199219 0,0.932584 -0.16694,1.697357 -0.5,2.296875 -0.33306,0.599518 -0.80795,1.07637 -1.42968,1.43164 -0.59951,0.333066 -1.34621,0.578945 -2.23438,0.734375 -0.88818,0.133232 -1.88586,0.199219 -2.99609,0.199219 h -2.43164 v -9.058594 c 0.73274,-0.06661 1.78739,-0.101562 3.16406,-0.101562 z m -49.45899,1.234375 v 13.787109 c -1.0658,0 -2.06545,-0.144937 -2.99804,-0.433594 -0.91038,-0.310861 -1.71011,-0.752764 -2.39844,-1.330078 -0.66614,-0.599518 -1.19992,-1.322249 -1.59961,-2.166015 -0.39968,-0.86597 -0.59961,-1.854626 -0.59961,-2.964844 0,-1.110218 0.19993,-2.087875 0.59961,-2.931641 0.39969,-0.86597 0.93347,-1.586749 1.59961,-2.164062 0.68833,-0.599519 1.48806,-1.041422 2.39844,-1.330078 0.93259,-0.310861 1.93224,-0.466797 2.99804,-0.466797 z m 3.13086,0 c 1.06581,0 2.05447,0.155936 2.96485,0.466797 0.93258,0.288656 1.73034,0.730559 2.39648,1.330078 0.68833,0.577313 1.23118,1.298092 1.63086,2.164062 0.39968,0.843766 0.60156,1.821423 0.60156,2.931641 0,1.110218 -0.20188,2.098874 -0.60156,2.964844 -0.39968,0.843766 -0.94253,1.566497 -1.63086,2.166015 -0.66614,0.577314 -1.4639,1.019217 -2.39648,1.330078 -0.91038,0.288657 -1.89904,0.433594 -2.96485,0.433594 z" sodipodi:nodetypes="cccccscccccccsccsccscccsccccccscsccccccccscccccsscccscccsscccccssccscscccccccscccccccccccssccssccsccscccccsccccccccsccccc"></path>
    <path sodipodi:nodetypes="cccsccsccccccccccsccc" inkscape:export-ydpi="11.292341" inkscape:export-xdpi="11.292341" inkscape:export-filename="/home/leo/MEGA/Храм/127-0-0-1-6/Лого SVG январь 2022/эфир2.png" inkscape:connector-curvature="0" id="path817-3-5" d="M 19.753331,37.317422 C 12.830721,37.109794 8.4925072,36.807009 6.317963,36.379701 5.0644691,36.133377 3.7122226,35.413287 2.8112924,34.51236 1.2770858,32.978154 0.73470608,31.209488 0.3071902,26.346641 -0.3702126,18.641453 0.1199503,8.3034399 1.3140473,5.1110075 1.9458967,3.4217671 3.6624655,1.7895905 5.4139051,1.2127133 7.7768672,0.43442649 16.769094,-0.02224537 25.929897,0.00113065 l 20.235128,0.07016148 0.04905,37.29107087 -17.887128,-0.04332 c -4.082885,0.0181 -7.940982,0.01734 -8.573542,-0.0017 z m 6.95211,-14.623813 c 3.780986,-2.17436 6.872585,-3.981799 6.870222,-4.016544 -0.0024,-0.03476 -2.037273,-1.228887 -4.522022,-2.653649 -2.484747,-1.424769 -5.611636,-3.220786 -6.948637,-3.991139 L 19.67409,10.631628 v 8.048828 c 0,4.426854 0.03529,8.030301 0.07842,8.007659 0.04312,-0.02261 3.17195,-1.820154 6.952932,-3.994506 z" style="fill:#dd4550;fill-opacity:1;stroke-width:0.104555"></path>
  </g>
</svg>
